<?xml version="1.0" encoding="UTF-8"?>
<!DOCTYPE svg PUBLIC "-//W3C//DTD SVG 1.1//EN" "http://www.w3.org/Graphics/SVG/1.1/DTD/svg11.dtd">
<svg xmlns="http://www.w3.org/2000/svg" version="1.1" width="300px" height="300px" style="shape-rendering:geometricPrecision; text-rendering:geometricPrecision; image-rendering:optimizeQuality; fill-rule:evenodd; clip-rule:evenodd" xmlns:xlink="http://www.w3.org/1999/xlink">
<g><path style="opacity:1" fill="#7ac0ed" d="M 295.5,163.5 C 292.5,163.5 289.5,163.5 286.5,163.5C 290,105.999 267.667,61.8319 219.5,31C 206.576,23.7494 192.91,18.5827 178.5,15.5C 163.15,12.4592 147.816,11.7926 132.5,13.5C 85.9028,19.9426 51.0694,43.6092 28,84.5C 15.3746,109.341 10.208,135.674 12.5,163.5C 9.5,163.5 6.5,163.5 3.5,163.5C -0.313675,105.971 21.0197,60.471 67.5,27C 115.528,-2.17549 165.195,-5.17549 216.5,18C 272.773,50.0351 299.107,98.5351 295.5,163.5 Z"/></g>
<g><path style="opacity:1" fill="#516baa" d="M 132.5,13.5 C 147.816,11.7926 163.15,12.4592 178.5,15.5C 188.927,38.0223 199.093,60.689 209,83.5C 209.697,85.5844 210.864,87.2511 212.5,88.5C 210.536,92.4112 211.536,95.0779 215.5,96.5C 215.833,97.8333 216.167,99.1667 216.5,100.5C 215.167,100.5 213.833,100.5 212.5,100.5C 212.5,111.5 212.5,122.5 212.5,133.5C 214.833,133.5 217.167,133.5 219.5,133.5C 219.5,122.833 219.5,112.167 219.5,101.5C 220.446,109.405 223.113,116.739 227.5,123.5C 228.674,124.514 229.34,125.847 229.5,127.5C 234.212,139.261 239.212,150.928 244.5,162.5C 207.506,163.5 170.506,163.833 133.5,163.5C 133.832,113.331 133.499,63.3306 132.5,13.5 Z"/></g>
<g><path style="opacity:1" fill="#3d5080" d="M 132.5,13.5 C 133.499,63.3306 133.832,113.331 133.5,163.5C 128.167,163.5 122.833,163.5 117.5,163.5C 117.667,116.832 117.5,70.1655 117,23.5C 107.725,44.3767 98.2248,65.0434 88.5,85.5C 83.2611,74.6832 78.2611,63.6832 73.5,52.5C 73.2172,51.7109 72.7172,51.0442 72,50.5C 71.5,75.4978 71.3334,100.498 71.5,125.5C 70.3127,127.072 69.3127,128.739 68.5,130.5C 68.8328,113.154 68.4995,95.8205 67.5,78.5C 66.7025,78.9569 66.3691,79.6236 66.5,80.5C 58.6516,98.3665 50.6516,116.2 42.5,134C 42.8333,134.5 43.1667,135 43.5,135.5C 51.3881,133.519 59.3881,132.185 67.5,131.5C 67.9382,131.435 68.2716,131.601 68.5,132C 67.086,133.993 66.086,136.16 65.5,138.5C 57.8261,138.334 50.1594,138.5 42.5,139C 43.0442,139.717 43.7109,140.217 44.5,140.5C 49.8333,143.167 55.1667,145.833 60.5,148.5C 58.2232,153.387 56.2232,158.387 54.5,163.5C 40.5,163.5 26.5,163.5 12.5,163.5C 10.208,135.674 15.3746,109.341 28,84.5C 51.0694,43.6092 85.9028,19.9426 132.5,13.5 Z"/></g>
<g><path style="opacity:1" fill="#3d5080" d="M 178.5,15.5 C 192.91,18.5827 206.576,23.7494 219.5,31C 267.667,61.8319 290,105.999 286.5,163.5C 289.5,163.5 292.5,163.5 295.5,163.5C 295.5,163.833 295.5,164.167 295.5,164.5C 198.167,164.5 100.833,164.5 3.5,164.5C 3.5,164.167 3.5,163.833 3.5,163.5C 6.5,163.5 9.5,163.5 12.5,163.5C 26.5,163.5 40.5,163.5 54.5,163.5C 75.5,163.5 96.5,163.5 117.5,163.5C 122.833,163.5 128.167,163.5 133.5,163.5C 170.506,163.833 207.506,163.5 244.5,162.5C 239.212,150.928 234.212,139.261 229.5,127.5C 230.977,129.807 232.977,131.64 235.5,133C 253.169,134.985 260.002,127.152 256,109.5C 251.936,101.39 245.436,98.5567 236.5,101C 228.152,106.186 225.152,113.686 227.5,123.5C 223.113,116.739 220.446,109.405 219.5,101.5C 218.791,100.596 217.791,100.263 216.5,100.5C 216.167,99.1667 215.833,97.8333 215.5,96.5C 219.976,96.1778 221.476,93.8444 220,89.5C 217.758,87.2854 215.258,86.9521 212.5,88.5C 210.864,87.2511 209.697,85.5844 209,83.5C 199.093,60.689 188.927,38.0223 178.5,15.5 Z"/></g>
<g><path style="opacity:1" fill="#516baa" d="M 117.5,163.5 C 96.5,163.5 75.5,163.5 54.5,163.5C 56.2232,158.387 58.2232,153.387 60.5,148.5C 62.6964,149.763 65.0297,150.763 67.5,151.5C 80.4508,147.627 93.4508,143.96 106.5,140.5C 107.473,140.013 108.473,139.513 109.5,139C 94.8371,138.5 80.1705,138.333 65.5,138.5C 66.086,136.16 67.086,133.993 68.5,132C 68.2716,131.601 67.9382,131.435 67.5,131.5C 67.5,131.167 67.5,130.833 67.5,130.5C 67.8333,130.5 68.1667,130.5 68.5,130.5C 69.3127,128.739 70.3127,127.072 71.5,125.5C 71.2053,127.735 71.5386,129.735 72.5,131.5C 82.8251,132.56 93.1584,133.56 103.5,134.5C 105.693,135.797 108.027,135.797 110.5,134.5C 110.376,133.893 110.043,133.56 109.5,133.5C 102.503,117.504 95.5025,101.504 88.5,85.5C 98.2248,65.0434 107.725,44.3767 117,23.5C 117.5,70.1655 117.667,116.832 117.5,163.5 Z"/></g>
<g><path style="opacity:1" fill="#9ea7c0" d="M 73.5,52.5 C 72.5022,78.6614 72.1688,104.995 72.5,131.5C 71.5386,129.735 71.2053,127.735 71.5,125.5C 71.3334,100.498 71.5,75.4978 72,50.5C 72.7172,51.0442 73.2172,51.7109 73.5,52.5 Z"/></g>
<g><path style="opacity:1" fill="#fbfbfd" d="M 73.5,52.5 C 78.2611,63.6832 83.2611,74.6832 88.5,85.5C 95.5025,101.504 102.503,117.504 109.5,133.5C 107.735,134.461 105.735,134.795 103.5,134.5C 93.1584,133.56 82.8251,132.56 72.5,131.5C 72.1688,104.995 72.5022,78.6614 73.5,52.5 Z"/></g>
<g><path style="opacity:1" fill="#7b88a8" d="M 68.5,130.5 C 68.1667,130.5 67.8333,130.5 67.5,130.5C 67.8298,113.658 67.4965,96.9916 66.5,80.5C 66.3691,79.6236 66.7025,78.9569 67.5,78.5C 68.4995,95.8205 68.8328,113.154 68.5,130.5 Z"/></g>
<g><path style="opacity:1" fill="#f8f9fa" d="M 66.5,80.5 C 67.4965,96.9916 67.8298,113.658 67.5,130.5C 67.5,130.833 67.5,131.167 67.5,131.5C 59.3881,132.185 51.3881,133.519 43.5,135.5C 43.1667,135 42.8333,134.5 42.5,134C 50.6516,116.2 58.6516,98.3665 66.5,80.5 Z"/></g>
<g><path style="opacity:1" fill="#f1f3f6" d="M 215.5,96.5 C 211.536,95.0779 210.536,92.4112 212.5,88.5C 215.258,86.9521 217.758,87.2854 220,89.5C 221.476,93.8444 219.976,96.1778 215.5,96.5 Z"/></g>
<g><path style="opacity:1" fill="#fefefe" d="M 140.5,89.5 C 142.5,89.5 144.5,89.5 146.5,89.5C 146.5,103.833 146.5,118.167 146.5,132.5C 144.5,132.5 142.5,132.5 140.5,132.5C 140.5,118.167 140.5,103.833 140.5,89.5 Z"/></g>
<g><path style="opacity:1" fill="#b8c2dc" d="M 139.5,89.5 C 141.948,88.5269 144.615,88.1936 147.5,88.5C 147.829,103.676 147.496,118.676 146.5,133.5C 146.5,133.167 146.5,132.833 146.5,132.5C 146.5,118.167 146.5,103.833 146.5,89.5C 144.5,89.5 142.5,89.5 140.5,89.5C 140.167,89.5 139.833,89.5 139.5,89.5 Z"/></g>
<g><path style="opacity:1" fill="#d6dbea" d="M 139.5,89.5 C 139.833,89.5 140.167,89.5 140.5,89.5C 140.5,103.833 140.5,118.167 140.5,132.5C 142.5,132.5 144.5,132.5 146.5,132.5C 146.5,132.833 146.5,133.167 146.5,133.5C 144.167,133.5 141.833,133.5 139.5,133.5C 139.5,118.833 139.5,104.167 139.5,89.5 Z"/></g>
<g><path style="opacity:1" fill="#f7f8fb" d="M 190.5,127.5 C 190.5,120.5 190.5,113.5 190.5,106.5C 188.833,106.5 187.167,106.5 185.5,106.5C 185.5,104.5 185.5,102.5 185.5,100.5C 187.167,100.5 188.833,100.5 190.5,100.5C 190.5,97.8333 190.5,95.1667 190.5,92.5C 192.833,92.5 195.167,92.5 197.5,92.5C 197.5,95.1667 197.5,97.8333 197.5,100.5C 199.857,100.337 202.19,100.503 204.5,101C 205.406,102.699 205.739,104.533 205.5,106.5C 202.833,106.5 200.167,106.5 197.5,106.5C 197.334,112.842 197.5,119.175 198,125.5C 199.789,127.229 201.956,127.896 204.5,127.5C 204.5,129.5 204.5,131.5 204.5,133.5C 200.089,133.979 195.922,133.312 192,131.5C 191.209,130.255 190.709,128.922 190.5,127.5 Z"/></g>
<g><path style="opacity:1" fill="#f5f6fa" d="M 162.5,100.5 C 168.605,99.651 174.105,100.984 179,104.5C 180.202,106.677 180.702,109.011 180.5,111.5C 178.473,111.662 176.473,111.495 174.5,111C 171.802,106.502 167.969,105.335 163,107.5C 162.28,109.112 162.446,110.612 163.5,112C 168.58,113.804 173.58,115.804 178.5,118C 183.096,124.496 181.763,129.496 174.5,133C 168.294,134.245 162.461,133.412 157,130.5C 155.097,128.559 154.264,126.226 154.5,123.5C 157.167,123.5 159.833,123.5 162.5,123.5C 162.489,126.822 164.155,128.489 167.5,128.5C 170.602,128.628 172.602,127.294 173.5,124.5C 173.182,123.353 172.516,122.519 171.5,122C 165.444,121.211 160.277,118.711 156,114.5C 155.333,111.5 155.333,108.5 156,105.5C 157.965,103.45 160.132,101.783 162.5,100.5 Z"/></g>
<g><path style="opacity:1" fill="#fbfbfc" d="M 216.5,100.5 C 217.791,100.263 218.791,100.596 219.5,101.5C 219.5,112.167 219.5,122.833 219.5,133.5C 217.167,133.5 214.833,133.5 212.5,133.5C 212.5,122.5 212.5,111.5 212.5,100.5C 213.833,100.5 215.167,100.5 216.5,100.5 Z"/></g>
<g><path style="opacity:1" fill="#f6f6f9" d="M 229.5,127.5 C 229.34,125.847 228.674,124.514 227.5,123.5C 225.152,113.686 228.152,106.186 236.5,101C 245.436,98.5567 251.936,101.39 256,109.5C 260.002,127.152 253.169,134.985 235.5,133C 232.977,131.64 230.977,129.807 229.5,127.5 Z"/></g>
<g><path style="opacity:1" fill="#8496c2" d="M 185.5,106.5 C 187.167,106.5 188.833,106.5 190.5,106.5C 190.5,113.5 190.5,120.5 190.5,127.5C 189.509,121.021 189.176,114.354 189.5,107.5C 187.901,107.768 186.568,107.434 185.5,106.5 Z"/></g>
<g><path style="opacity:1" fill="#445684" d="M 239.5,106.5 C 243.888,105.943 247.055,107.61 249,111.5C 250.253,116.799 249.42,121.632 246.5,126C 242.131,128.462 238.631,127.629 236,123.5C 235.333,119.167 235.333,114.833 236,110.5C 237.376,109.295 238.542,107.962 239.5,106.5 Z"/></g>
<g><path style="opacity:1" fill="#9dabcf" d="M 109.5,133.5 C 110.043,133.56 110.376,133.893 110.5,134.5C 108.027,135.797 105.693,135.797 103.5,134.5C 105.735,134.795 107.735,134.461 109.5,133.5 Z"/></g>
<g><path style="opacity:1" fill="#a2aecd" d="M 65.5,138.5 C 80.1705,138.333 94.8371,138.5 109.5,139C 108.473,139.513 107.473,140.013 106.5,140.5C 85.8333,139.167 65.1667,139.167 44.5,140.5C 43.7109,140.217 43.0442,139.717 42.5,139C 50.1594,138.5 57.8261,138.334 65.5,138.5 Z"/></g>
<g><path style="opacity:1" fill="#fafafc" d="M 44.5,140.5 C 65.1667,139.167 85.8333,139.167 106.5,140.5C 93.4508,143.96 80.4508,147.627 67.5,151.5C 65.0297,150.763 62.6964,149.763 60.5,148.5C 55.1667,145.833 49.8333,143.167 44.5,140.5 Z"/></g>
<g><path style="opacity:0.995" fill="#2b3855" d="M 3.5,164.5 C 100.833,164.5 198.167,164.5 295.5,164.5C 295.5,178.5 295.5,192.5 295.5,206.5C 201.999,206.167 108.665,206.501 15.5,207.5C 11.5,207.5 7.5,207.5 3.5,207.5C 3.5,193.167 3.5,178.833 3.5,164.5 Z"/></g>
<g><path style="opacity:1" fill="#c2c6cf" d="M 147.5,175.5 C 141.729,174.887 136.396,175.554 131.5,177.5C 130.596,176.791 130.263,175.791 130.5,174.5C 136.358,174.178 142.025,174.511 147.5,175.5 Z"/></g>
<g><path style="opacity:1" fill="#dee0e4" d="M 81.5,178.5 C 81.5983,181.248 80.5983,181.914 78.5,180.5C 76.0917,176.987 73.2583,176.654 70,179.5C 69.3333,184.167 69.3333,188.833 70,193.5C 71.8083,195.396 73.975,195.896 76.5,195C 78.0368,193.89 78.7035,192.39 78.5,190.5C 79.8333,190.5 81.1667,190.5 82.5,190.5C 81.9518,195.534 79.1185,198.201 74,198.5C 70.2333,198.078 67.5666,196.078 66,192.5C 65.3333,188.167 65.3333,183.833 66,179.5C 68.5414,174.931 72.3747,173.431 77.5,175C 79.3237,175.66 80.657,176.827 81.5,178.5 Z"/></g>
<g><path style="opacity:1" fill="#b6bbc5" d="M 103.5,177.5 C 99.2853,175.564 94.6186,174.897 89.5,175.5C 89.5,182.833 89.5,190.167 89.5,197.5C 94.1667,197.5 98.8333,197.5 103.5,197.5C 98.6946,198.487 93.6946,198.821 88.5,198.5C 88.5,190.5 88.5,182.5 88.5,174.5C 93.8333,174.5 99.1667,174.5 104.5,174.5C 104.737,175.791 104.404,176.791 103.5,177.5 Z"/></g>
<g><path style="opacity:1" fill="#f9fafa" d="M 103.5,177.5 C 99.5,177.5 95.5,177.5 91.5,177.5C 91.5,179.833 91.5,182.167 91.5,184.5C 94.4766,184.902 97.1433,185.902 99.5,187.5C 96.8333,187.5 94.1667,187.5 91.5,187.5C 91.5,190.167 91.5,192.833 91.5,195.5C 95.5,195.5 99.5,195.5 103.5,195.5C 104.833,196.167 104.833,196.833 103.5,197.5C 98.8333,197.5 94.1667,197.5 89.5,197.5C 89.5,190.167 89.5,182.833 89.5,175.5C 94.6186,174.897 99.2853,175.564 103.5,177.5 Z"/></g>
<g><path style="opacity:1" fill="#e9eaed" d="M 125.5,196.5 C 125.158,197.338 124.492,197.672 123.5,197.5C 121.54,194.823 120.04,191.823 119,188.5C 117.301,187.594 115.467,187.261 113.5,187.5C 113.5,190.833 113.5,194.167 113.5,197.5C 112.5,197.5 111.5,197.5 110.5,197.5C 110.5,189.833 110.5,182.167 110.5,174.5C 114.182,174.335 117.848,174.501 121.5,175C 127.771,178.919 128.104,183.419 122.5,188.5C 123.51,191.183 124.51,193.849 125.5,196.5 Z"/></g>
<g><path style="opacity:1" fill="#f5f5f7" d="M 147.5,175.5 C 147.5,176.167 147.5,176.833 147.5,177.5C 145.167,177.5 142.833,177.5 140.5,177.5C 140.5,184.167 140.5,190.833 140.5,197.5C 139.5,197.5 138.5,197.5 137.5,197.5C 137.5,190.833 137.5,184.167 137.5,177.5C 135.5,177.5 133.5,177.5 131.5,177.5C 136.396,175.554 141.729,174.887 147.5,175.5 Z"/></g>
<g><path style="opacity:1" fill="#f0f1f3" d="M 153.5,174.5 C 154.5,174.5 155.5,174.5 156.5,174.5C 156.5,182.167 156.5,189.833 156.5,197.5C 155.5,197.5 154.5,197.5 153.5,197.5C 153.5,189.833 153.5,182.167 153.5,174.5 Z"/></g>
<g><path style="opacity:1" fill="#c0c5cd" d="M 178.5,177.5 C 174.285,175.564 169.619,174.897 164.5,175.5C 163.87,183.243 164.537,190.576 166.5,197.5C 165.791,198.404 164.791,198.737 163.5,198.5C 163.5,190.5 163.5,182.5 163.5,174.5C 168.833,174.5 174.167,174.5 179.5,174.5C 179.737,175.791 179.404,176.791 178.5,177.5 Z"/></g>
<g><path style="opacity:1" fill="#fafbfb" d="M 178.5,177.5 C 174.5,177.5 170.5,177.5 166.5,177.5C 166.5,179.833 166.5,182.167 166.5,184.5C 169.477,184.902 172.143,185.902 174.5,187.5C 171.833,187.5 169.167,187.5 166.5,187.5C 166.5,190.833 166.5,194.167 166.5,197.5C 164.537,190.576 163.87,183.243 164.5,175.5C 169.619,174.897 174.285,175.564 178.5,177.5 Z"/></g>
<g><path style="opacity:1" fill="#a9aeba" d="M 187.5,197.5 C 186.791,198.404 185.791,198.737 184.5,198.5C 184.5,190.5 184.5,182.5 184.5,174.5C 185.833,174.5 187.167,174.5 188.5,174.5C 188.825,182.352 188.492,190.018 187.5,197.5 Z"/></g>
<g><path style="opacity:1" fill="#fdfdfd" d="M 187.5,197.5 C 186.178,194.232 185.511,190.565 185.5,186.5C 185.833,182.833 186.167,179.167 186.5,175.5C 187.497,182.803 187.831,190.137 187.5,197.5 Z"/></g>
<g><path style="opacity:1" fill="#b0b5c0" d="M 209.5,177.5 C 205.285,175.564 200.619,174.897 195.5,175.5C 195.5,182.833 195.5,190.167 195.5,197.5C 195.167,197.5 194.833,197.5 194.5,197.5C 194.5,189.833 194.5,182.167 194.5,174.5C 199.833,174.5 205.167,174.5 210.5,174.5C 210.737,175.791 210.404,176.791 209.5,177.5 Z"/></g>
<g><path style="opacity:1" fill="#f2f2f4" d="M 209.5,177.5 C 205.833,177.5 202.167,177.5 198.5,177.5C 198.5,179.833 198.5,182.167 198.5,184.5C 201.167,184.5 203.833,184.5 206.5,184.5C 206.5,185.5 206.5,186.5 206.5,187.5C 203.5,187.5 200.5,187.5 197.5,187.5C 197.5,190.167 197.5,192.833 197.5,195.5C 201.555,195.176 205.555,195.509 209.5,196.5C 204.88,197.493 200.214,197.827 195.5,197.5C 195.5,190.167 195.5,182.833 195.5,175.5C 200.619,174.897 205.285,175.564 209.5,177.5 Z"/></g>
<g><path style="opacity:1" fill="#eff0f2" d="M 216.5,174.5 C 220.967,174.133 225.3,174.633 229.5,176C 232.041,178.749 233.041,182.082 232.5,186C 232.714,189.569 232.047,192.902 230.5,196C 225.964,197.379 221.297,197.879 216.5,197.5C 216.5,189.833 216.5,182.167 216.5,174.5 Z"/></g>
<g><path style="opacity:1" fill="#566178" d="M 103.5,177.5 C 100.038,178.482 96.3714,178.815 92.5,178.5C 92.5,180.5 92.5,182.5 92.5,184.5C 92.1667,184.5 91.8333,184.5 91.5,184.5C 91.5,182.167 91.5,179.833 91.5,177.5C 95.5,177.5 99.5,177.5 103.5,177.5 Z"/></g>
<g><path style="opacity:1" fill="#566178" d="M 178.5,177.5 C 175.038,178.482 171.371,178.815 167.5,178.5C 167.5,180.5 167.5,182.5 167.5,184.5C 167.167,184.5 166.833,184.5 166.5,184.5C 166.5,182.167 166.5,179.833 166.5,177.5C 170.5,177.5 174.5,177.5 178.5,177.5 Z"/></g>
<g><path style="opacity:1" fill="#333f5c" d="M 113.5,177.5 C 116.187,177.336 118.854,177.503 121.5,178C 122.833,180 122.833,182 121.5,184C 118.854,184.497 116.187,184.664 113.5,184.5C 113.5,182.167 113.5,179.833 113.5,177.5 Z"/></g>
<g><path style="opacity:1" fill="#5d677d" d="M 147.5,177.5 C 145.735,178.461 143.735,178.795 141.5,178.5C 141.823,185.022 141.49,191.355 140.5,197.5C 140.5,190.833 140.5,184.167 140.5,177.5C 142.833,177.5 145.167,177.5 147.5,177.5 Z"/></g>
<g><path style="opacity:1" fill="#5f697f" d="M 226.5,178.5 C 224.5,178.5 222.5,178.5 220.5,178.5C 220.5,183.833 220.5,189.167 220.5,194.5C 222.5,194.5 224.5,194.5 226.5,194.5C 224.393,195.468 222.059,195.802 219.5,195.5C 219.5,189.5 219.5,183.5 219.5,177.5C 222.059,177.198 224.393,177.532 226.5,178.5 Z"/></g>
<g><path style="opacity:1" fill="#323e5b" d="M 226.5,178.5 C 227.496,178.414 228.329,178.748 229,179.5C 229.667,183.833 229.667,188.167 229,192.5C 228.292,193.381 227.458,194.047 226.5,194.5C 224.5,194.5 222.5,194.5 220.5,194.5C 220.5,189.167 220.5,183.833 220.5,178.5C 222.5,178.5 224.5,178.5 226.5,178.5 Z"/></g>
<g><path style="opacity:1" fill="#a3a9b6" d="M 81.5,178.5 C 82.4345,179.568 82.7678,180.901 82.5,182.5C 80.5168,182.843 79.1834,182.176 78.5,180.5C 80.5983,181.914 81.5983,181.248 81.5,178.5 Z"/></g>
<g><path style="opacity:1" fill="#b4b8c2" d="M 91.5,184.5 C 91.8333,184.5 92.1667,184.5 92.5,184.5C 95.1667,184.5 97.8333,184.5 100.5,184.5C 100.5,185.5 100.5,186.5 100.5,187.5C 100.167,187.5 99.8333,187.5 99.5,187.5C 97.1433,185.902 94.4766,184.902 91.5,184.5 Z"/></g>
<g><path style="opacity:1" fill="#b3b8c2" d="M 166.5,184.5 C 166.833,184.5 167.167,184.5 167.5,184.5C 170.167,184.5 172.833,184.5 175.5,184.5C 175.5,185.5 175.5,186.5 175.5,187.5C 175.167,187.5 174.833,187.5 174.5,187.5C 172.143,185.902 169.477,184.902 166.5,184.5 Z"/></g>
<g><path style="opacity:1" fill="#6f788c" d="M 174.5,187.5 C 174.833,187.5 175.167,187.5 175.5,187.5C 173.052,188.473 170.385,188.806 167.5,188.5C 167.81,191.713 167.477,194.713 166.5,197.5C 166.5,194.167 166.5,190.833 166.5,187.5C 169.167,187.5 171.833,187.5 174.5,187.5 Z"/></g>
<g><path style="opacity:1" fill="#7d8597" d="M 99.5,187.5 C 99.8333,187.5 100.167,187.5 100.5,187.5C 98.0521,188.473 95.3854,188.806 92.5,188.5C 92.5,190.5 92.5,192.5 92.5,194.5C 96.3714,194.185 100.038,194.518 103.5,195.5C 99.5,195.5 95.5,195.5 91.5,195.5C 91.5,192.833 91.5,190.167 91.5,187.5C 94.1667,187.5 96.8333,187.5 99.5,187.5 Z"/></g>
<g><path style="opacity:1" fill="#798194" d="M 125.5,196.5 C 126.885,197.302 126.718,197.969 125,198.5C 124.235,198.43 123.735,198.097 123.5,197.5C 124.492,197.672 125.158,197.338 125.5,196.5 Z"/></g>
<g><path style="opacity:1" fill="#7d8597" d="M 206.5,187.5 C 204.052,188.473 201.385,188.806 198.5,188.5C 198.5,190.5 198.5,192.5 198.5,194.5C 202.5,194.5 206.5,194.5 210.5,194.5C 210.5,195.833 210.5,197.167 210.5,198.5C 204.974,198.821 199.64,198.488 194.5,197.5C 194.833,197.5 195.167,197.5 195.5,197.5C 200.214,197.827 204.88,197.493 209.5,196.5C 205.555,195.509 201.555,195.176 197.5,195.5C 197.5,192.833 197.5,190.167 197.5,187.5C 200.5,187.5 203.5,187.5 206.5,187.5 Z"/></g>
<g><path style="opacity:1" fill="#384b75" d="M 15.5,207.5 C 108.665,206.501 201.999,206.167 295.5,206.5C 295.489,208.017 294.823,209.184 293.5,210C 288.684,212.662 284.018,215.495 279.5,218.5C 279.841,214.646 281.174,211.146 283.5,208C 280.118,207.176 276.784,207.343 273.5,208.5C 272.153,211.193 270.82,213.86 269.5,216.5C 267.734,213.812 266.067,210.979 264.5,208C 220.835,207.5 177.168,207.333 133.5,207.5C 128.167,207.5 122.833,207.5 117.5,207.5C 89.8313,207.333 62.1647,207.5 34.5,208C 32.9195,211.011 31.2528,213.844 29.5,216.5C 28.1799,213.86 26.8466,211.193 25.5,208.5C 22.2317,207.513 18.8984,207.18 15.5,207.5 Z"/></g>
<g><path style="opacity:0.698" fill="#3e5282" d="M 3.5,207.5 C 7.5,207.5 11.5,207.5 15.5,207.5C 17.6825,210.864 19.0159,214.53 19.5,218.5C 13.7478,215.303 8.41445,211.636 3.5,207.5 Z"/></g>
<g><path style="opacity:1" fill="#7ac0ed" d="M 15.5,207.5 C 18.8984,207.18 22.2317,207.513 25.5,208.5C 26.8466,211.193 28.1799,213.86 29.5,216.5C 32.6856,222.218 36.3523,227.552 40.5,232.5C 44.8041,238.771 49.8041,244.437 55.5,249.5C 83.6812,276.233 117.348,288.566 156.5,286.5C 177.814,285.505 197.814,279.838 216.5,269.5C 226.429,264.041 235.429,257.374 243.5,249.5C 248.54,245.461 252.873,240.794 256.5,235.5C 261.562,229.725 265.895,223.391 269.5,216.5C 270.82,213.86 272.153,211.193 273.5,208.5C 276.784,207.343 280.118,207.176 283.5,208C 281.174,211.146 279.841,214.646 279.5,218.5C 251.155,268.602 207.988,294.602 150,296.5C 91.4712,295.047 47.9712,269.047 19.5,218.5C 19.0159,214.53 17.6825,210.864 15.5,207.5 Z"/></g>
<g><path style="opacity:1" fill="#3f5281" d="M 117.5,207.5 C 122.833,207.5 128.167,207.5 133.5,207.5C 133.5,211.833 133.5,216.167 133.5,220.5C 158.171,223.223 182.838,226.056 207.5,229C 208.056,229.383 208.389,229.883 208.5,230.5C 205.192,236.401 206.525,241.235 212.5,245C 218.944,245.72 222.61,242.887 223.5,236.5C 222.167,236.5 220.833,236.5 219.5,236.5C 219.143,240.395 217.143,241.395 213.5,239.5C 215.657,237.588 217.991,235.921 220.5,234.5C 221.626,233.192 221.626,231.858 220.5,230.5C 231.861,231.337 243.194,232.503 254.5,234C 255.416,234.278 256.082,234.778 256.5,235.5C 252.873,240.794 248.54,245.461 243.5,249.5C 232.167,249.5 220.833,249.5 209.5,249.5C 208.042,247.989 206.209,246.989 204,246.5C 203.03,244.726 202.196,242.893 201.5,241C 202.893,239.699 203.393,238.199 203,236.5C 201.887,235.289 200.72,235.289 199.5,236.5C 198.335,235.509 197.168,234.509 196,233.5C 195.228,233.645 194.561,233.978 194,234.5C 194.363,236.716 194.196,238.882 193.5,241C 194.377,242.867 195.877,244.034 198,244.5C 198.791,245.745 199.291,247.078 199.5,248.5C 198.081,249.451 196.415,249.784 194.5,249.5C 192.517,243.866 188.517,242.033 182.5,244C 181.29,245.039 180.29,246.206 179.5,247.5C 178.533,248.806 177.199,249.473 175.5,249.5C 174.448,247.744 172.781,247.077 170.5,247.5C 168.886,249.075 166.886,249.741 164.5,249.5C 161.833,249.5 159.167,249.5 156.5,249.5C 152.5,249.5 148.5,249.5 144.5,249.5C 142.5,249.5 140.5,249.5 138.5,249.5C 135.833,249.5 133.167,249.5 130.5,249.5C 126.013,245.713 121.679,245.713 117.5,249.5C 116.022,248.552 115.022,247.219 114.5,245.5C 111.751,241.829 108.084,240.663 103.5,242C 101.675,243.466 101.175,245.299 102,247.5C 103.337,250.002 105.171,252.002 107.5,253.5C 104.951,254.831 103.284,253.998 102.5,251C 101.207,250.51 99.8734,250.343 98.5,250.5C 96.5168,250.843 95.1834,250.176 94.5,248.5C 96.1538,242.517 97.8205,236.517 99.5,230.5C 98.4597,228.625 96.9597,227.292 95,226.5C 88.6751,231.327 82.5084,236.327 76.5,241.5C 78.2519,243.806 80.4185,244.14 83,242.5C 86.3723,243.378 88.539,245.378 89.5,248.5C 78.2476,249.477 66.9143,249.811 55.5,249.5C 49.8041,244.437 44.8041,238.771 40.5,232.5C 66.1568,228.311 91.8234,224.311 117.5,220.5C 117.5,216.167 117.5,211.833 117.5,207.5 Z"/></g>
<g><path style="opacity:1" fill="#506aa9" d="M 117.5,207.5 C 117.5,211.833 117.5,216.167 117.5,220.5C 91.8234,224.311 66.1568,228.311 40.5,232.5C 36.3523,227.552 32.6856,222.218 29.5,216.5C 31.2528,213.844 32.9195,211.011 34.5,208C 62.1647,207.5 89.8313,207.333 117.5,207.5 Z"/></g>
<g><path style="opacity:1" fill="#506aa9" d="M 133.5,207.5 C 177.168,207.333 220.835,207.5 264.5,208C 266.067,210.979 267.734,213.812 269.5,216.5C 265.895,223.391 261.562,229.725 256.5,235.5C 256.082,234.778 255.416,234.278 254.5,234C 243.194,232.503 231.861,231.337 220.5,230.5C 216.464,227.919 212.464,227.919 208.5,230.5C 208.389,229.883 208.056,229.383 207.5,229C 182.838,226.056 158.171,223.223 133.5,220.5C 133.5,216.167 133.5,211.833 133.5,207.5 Z"/></g>
<g><path style="opacity:1" fill="#f1f2f6" d="M 94.5,248.5 C 93.8386,249.718 93.1719,251.051 92.5,252.5C 90.4501,251.923 89.4501,250.59 89.5,248.5C 88.539,245.378 86.3723,243.378 83,242.5C 80.4185,244.14 78.2519,243.806 76.5,241.5C 82.5084,236.327 88.6751,231.327 95,226.5C 96.9597,227.292 98.4597,228.625 99.5,230.5C 97.8205,236.517 96.1538,242.517 94.5,248.5 Z"/></g>
<g><path style="opacity:1" fill="#eff0f4" d="M 220.5,230.5 C 221.626,231.858 221.626,233.192 220.5,234.5C 217.991,235.921 215.657,237.588 213.5,239.5C 217.143,241.395 219.143,240.395 219.5,236.5C 220.833,236.5 222.167,236.5 223.5,236.5C 222.61,242.887 218.944,245.72 212.5,245C 206.525,241.235 205.192,236.401 208.5,230.5C 212.464,227.919 216.464,227.919 220.5,230.5 Z"/></g>
<g><path style="opacity:1" fill="#52628d" d="M 211.5,232.5 C 216.515,232.863 216.682,234.197 212,236.5C 211.51,235.207 211.343,233.873 211.5,232.5 Z"/></g>
<g><path style="opacity:1" fill="#f0f1f5" d="M 209.5,249.5 C 205.71,253.719 202.377,253.386 199.5,248.5C 199.291,247.078 198.791,245.745 198,244.5C 195.877,244.034 194.377,242.867 193.5,241C 194.196,238.882 194.363,236.716 194,234.5C 194.561,233.978 195.228,233.645 196,233.5C 197.168,234.509 198.335,235.509 199.5,236.5C 200.72,235.289 201.887,235.289 203,236.5C 203.393,238.199 202.893,239.699 201.5,241C 202.196,242.893 203.03,244.726 204,246.5C 206.209,246.989 208.042,247.989 209.5,249.5 Z"/></g>
<g><path style="opacity:1" fill="#53628d" d="M 92.5,233.5 C 93.0967,233.735 93.4301,234.235 93.5,235C 92.4238,237.474 91.4238,239.974 90.5,242.5C 89.1667,241.5 87.8333,240.5 86.5,239.5C 88.5332,237.493 90.5332,235.493 92.5,233.5 Z"/></g>
<g><path style="opacity:1" fill="#eef0f5" d="M 114.5,245.5 C 114.762,246.978 114.429,248.311 113.5,249.5C 111.36,248.527 109.693,247.027 108.5,245C 107.517,244.409 106.85,244.743 106.5,246C 107.72,247.952 109.387,249.452 111.5,250.5C 113.77,255.376 112.27,258.042 107,258.5C 101.683,258.348 98.8499,255.681 98.5,250.5C 99.8734,250.343 101.207,250.51 102.5,251C 103.284,253.998 104.951,254.831 107.5,253.5C 105.171,252.002 103.337,250.002 102,247.5C 101.175,245.299 101.675,243.466 103.5,242C 108.084,240.663 111.751,241.829 114.5,245.5 Z"/></g>
<g><path style="opacity:1" fill="#e9ebf0" d="M 169.5,240.5 C 170.833,240.5 172.167,240.5 173.5,240.5C 173.5,242.167 173.5,243.833 173.5,245.5C 169.065,246.078 167.732,244.411 169.5,240.5 Z"/></g>
<g><path style="opacity:1" fill="#eef0f5" d="M 194.5,249.5 C 195.059,251.679 195.726,253.846 196.5,256C 196.167,256.5 195.833,257 195.5,257.5C 191.996,258.206 188.829,259.539 186,261.5C 182.872,261.039 181.038,259.205 180.5,256C 182.348,252.653 185.015,250.153 188.5,248.5C 187.833,248.167 187.167,247.833 186.5,247.5C 184.573,249.293 182.239,250.293 179.5,250.5C 179.5,249.5 179.5,248.5 179.5,247.5C 180.29,246.206 181.29,245.039 182.5,244C 188.517,242.033 192.517,243.866 194.5,249.5 Z"/></g>
<g><path style="opacity:1" fill="#5c6c98" d="M 114.5,245.5 C 115.022,247.219 116.022,248.552 117.5,249.5C 117.5,250.5 117.5,251.5 117.5,252.5C 115.886,250.925 113.886,250.259 111.5,250.5C 109.387,249.452 107.72,247.952 106.5,246C 106.85,244.743 107.517,244.409 108.5,245C 109.693,247.027 111.36,248.527 113.5,249.5C 114.429,248.311 114.762,246.978 114.5,245.5 Z"/></g>
<g><path style="opacity:1" fill="#edeff5" d="M 130.5,249.5 C 131.234,250.708 131.567,252.041 131.5,253.5C 130.127,253.657 128.793,253.49 127.5,253C 126.228,250.739 124.562,250.239 122.5,251.5C 124.5,253.327 126.667,254.994 129,256.5C 130.756,261.406 129.089,264.073 124,264.5C 118.752,264.164 115.918,261.498 115.5,256.5C 118.257,256.378 120.257,257.545 121.5,260C 122.635,260.749 123.635,260.583 124.5,259.5C 121.94,257.388 119.606,255.055 117.5,252.5C 117.5,251.5 117.5,250.5 117.5,249.5C 121.679,245.713 126.013,245.713 130.5,249.5 Z"/></g>
<g><path style="opacity:1" fill="#536caa" d="M 170.5,247.5 C 171.138,252.19 171.971,256.856 173,261.5C 174.049,263.107 175.549,263.773 177.5,263.5C 177.462,258.729 176.796,254.062 175.5,249.5C 177.199,249.473 178.533,248.806 179.5,247.5C 179.5,248.5 179.5,249.5 179.5,250.5C 182.239,250.293 184.573,249.293 186.5,247.5C 187.167,247.833 187.833,248.167 188.5,248.5C 185.015,250.153 182.348,252.653 180.5,256C 181.038,259.205 182.872,261.039 186,261.5C 188.829,259.539 191.996,258.206 195.5,257.5C 195.833,257 196.167,256.5 196.5,256C 195.726,253.846 195.059,251.679 194.5,249.5C 196.415,249.784 198.081,249.451 199.5,248.5C 202.377,253.386 205.71,253.719 209.5,249.5C 220.833,249.5 232.167,249.5 243.5,249.5C 235.429,257.374 226.429,264.041 216.5,269.5C 216.44,268.957 216.107,268.624 215.5,268.5C 195.778,274.675 176.112,280.675 156.5,286.5C 117.348,288.566 83.6812,276.233 55.5,249.5C 66.9143,249.811 78.2476,249.477 89.5,248.5C 89.4501,250.59 90.4501,251.923 92.5,252.5C 93.1719,251.051 93.8386,249.718 94.5,248.5C 95.1834,250.176 96.5168,250.843 98.5,250.5C 98.8499,255.681 101.683,258.348 107,258.5C 112.27,258.042 113.77,255.376 111.5,250.5C 113.886,250.259 115.886,250.925 117.5,252.5C 119.606,255.055 121.94,257.388 124.5,259.5C 123.635,260.583 122.635,260.749 121.5,260C 120.257,257.545 118.257,256.378 115.5,256.5C 115.918,261.498 118.752,264.164 124,264.5C 129.089,264.073 130.756,261.406 129,256.5C 126.667,254.994 124.5,253.327 122.5,251.5C 124.562,250.239 126.228,250.739 127.5,253C 128.793,253.49 130.127,253.657 131.5,253.5C 131.567,252.041 131.234,250.708 130.5,249.5C 133.167,249.5 135.833,249.5 138.5,249.5C 132.287,254.532 131.953,260.032 137.5,266C 147.112,267.383 150.946,263.216 149,253.5C 147.603,251.93 146.103,250.596 144.5,249.5C 148.5,249.5 152.5,249.5 156.5,249.5C 151.236,254.724 151.236,260.057 156.5,265.5C 162.747,267.711 166.747,265.711 168.5,259.5C 165.487,259.372 162.987,260.372 161,262.5C 159.739,262.241 158.739,261.574 158,260.5C 156.394,253.596 158.56,251.929 164.5,255.5C 168.292,253.532 168.292,251.532 164.5,249.5C 166.886,249.741 168.886,249.075 170.5,247.5 Z"/></g>
<g><path style="opacity:1" fill="#eff1f6" d="M 156.5,249.5 C 159.167,249.5 161.833,249.5 164.5,249.5C 168.292,251.532 168.292,253.532 164.5,255.5C 158.56,251.929 156.394,253.596 158,260.5C 158.739,261.574 159.739,262.241 161,262.5C 162.987,260.372 165.487,259.372 168.5,259.5C 166.747,265.711 162.747,267.711 156.5,265.5C 151.236,260.057 151.236,254.724 156.5,249.5 Z"/></g>
<g><path style="opacity:1" fill="#f1f3f7" d="M 170.5,247.5 C 172.781,247.077 174.448,247.744 175.5,249.5C 176.796,254.062 177.462,258.729 177.5,263.5C 175.549,263.773 174.049,263.107 173,261.5C 171.971,256.856 171.138,252.19 170.5,247.5 Z"/></g>
<g><path style="opacity:1" fill="#f1f3f7" d="M 138.5,249.5 C 140.5,249.5 142.5,249.5 144.5,249.5C 146.103,250.596 147.603,251.93 149,253.5C 150.946,263.216 147.112,267.383 137.5,266C 131.953,260.032 132.287,254.532 138.5,249.5 Z"/></g>
<g><path style="opacity:1" fill="#6178b1" d="M 187.5,252.5 C 188.5,252.5 189.5,252.5 190.5,252.5C 190.616,255.91 188.95,257.244 185.5,256.5C 185.527,254.801 186.194,253.467 187.5,252.5 Z"/></g>
<g><path style="opacity:1" fill="#5d75af" d="M 139.5,253.5 C 141.144,253.286 142.644,253.62 144,254.5C 144.769,257.099 144.602,259.599 143.5,262C 141.888,262.72 140.388,262.554 139,261.5C 138.398,258.779 138.565,256.113 139.5,253.5 Z"/></g>
<g><path style="opacity:1" fill="#405485" d="M 216.5,269.5 C 197.814,279.838 177.814,285.505 156.5,286.5C 176.112,280.675 195.778,274.675 215.5,268.5C 216.107,268.624 216.44,268.957 216.5,269.5 Z"/></g>
</svg>
