<?xml version="1.0" encoding="UTF-8"?>
<svg version="1.1" xmlns="http://www.w3.org/2000/svg" width="600" height="600">
<path d="M0 0 C197.01 0 394.02 0 597 0 C597 142.23 597 284.46 597 431 C543.045 442.385 543.045 442.385 488 454 C466.19564228 458.61581899 444.3915201 463.23255971 422.58953857 467.85955811 C417.92851945 468.84854192 413.267364 469.83688181 408.60617721 470.82507503 C403.22386491 471.96618517 397.84173346 473.10814651 392.45964158 474.25029576 C387.91014147 475.21556784 383.3601513 476.17850722 378.81002808 477.14083862 C366.50306034 479.74690572 354.2040672 482.38393104 341.91950595 485.09342945 C337.3817924 486.09277258 332.8422014 487.08356883 328.30301857 488.07621193 C325.84906685 488.61588485 323.39615132 489.16029424 320.94437218 489.70975304 C317.57447505 490.46495104 314.20145738 491.20435787 310.82739258 491.94067383 C309.84299761 492.16600863 308.85860264 492.39134342 307.84437752 492.62350655 C302.12589368 493.85254991 297.75343033 494.09694279 292 493 C290.86949722 492.78651413 289.73899445 492.57302826 288.57423401 492.35307312 C287.43155563 492.10724991 286.28887726 491.8614267 285.11157227 491.6081543 C284.47044495 491.47122665 283.82931763 491.33429901 283.16876221 491.19322205 C281.05061874 490.7400477 278.93353712 490.28209831 276.81640625 489.82421875 C275.28294272 489.4953441 273.74940707 489.16680553 272.21580505 488.83857727 C268.14523029 487.96658387 264.07549996 487.09071412 260.00598145 486.21380615 C252.90207516 484.68368216 245.79671026 483.16033642 238.69140625 481.63671875 C237.86152569 481.45868525 237.03164513 481.28065174 236.17661667 481.09722328 C214.86172346 476.5261792 193.52737547 472.04773725 172.19403172 467.56376076 C147.62720327 462.40000806 123.06327644 457.22245116 98.49922276 452.04551792 C90.21789089 450.3002342 81.93645331 448.55545489 73.65478516 446.81176758 C66.25392091 445.25353046 58.85324271 443.69441328 51.45278573 442.13424307 C47.58734691 441.31935763 43.72182343 440.50487943 39.85607147 439.69148064 C36.2600479 438.93482223 32.6642772 438.17697335 29.06868935 437.41824722 C27.15033336 437.01375198 25.23172003 436.61047776 23.31309509 436.20726013 C22.14071793 435.95963928 20.96834076 435.71201843 19.76043701 435.45689392 C18.76242443 435.24664046 17.76441185 435.036387 16.73615646 434.81976223 C11.14693922 433.59341391 5.57563634 432.28668531 0 431 C0 288.77 0 146.54 0 0 Z " fill="#1D99DC" transform="translate(2,41)"/>
<path d="M0 0 C197.01 0 394.02 0 597 0 C597 69.3 597 138.6 597 210 C399.99 210 202.98 210 0 210 C0 140.7 0 71.4 0 0 Z " fill="#013764" transform="translate(2,41)"/>
<path d="M0 0 C23.54970987 4.59667499 47.01350047 9.60706959 70.48802948 14.57013321 C74.0341921 15.31972759 77.58046294 16.06880788 81.12677002 16.81771851 C125.73656875 26.23855337 170.3376852 35.70033033 214.93463135 45.18180847 C219.27563099 46.10463724 223.61691558 47.02610753 227.95843506 47.94648743 C237.67250028 50.007143 247.38395463 52.07816937 257.08711052 54.18968296 C261.44843982 55.13824467 265.81100669 56.08104178 270.17366409 57.02347374 C272.22510075 57.46844029 274.27590064 57.91635438 276.32600021 58.36744118 C279.14498765 58.98760817 281.96598374 59.59772353 284.78759766 60.20581055 C286.01685156 60.4805763 286.01685156 60.4805763 287.27093887 60.76089287 C295.12329188 62.43321258 302.0155937 62.25907847 309.90136719 60.51660156 C310.65899164 60.35614098 311.4166161 60.19568039 312.19719887 60.03035736 C314.73213118 59.49145698 317.26440865 58.94098781 319.796875 58.390625 C321.64206491 57.99602944 323.48741715 57.60219233 325.33291626 57.20904541 C329.34639786 56.35246127 333.35874344 55.49079713 337.37030029 54.62524414 C343.85664215 53.22583305 350.34534018 51.83757715 356.83447266 50.45117188 C363.87798399 48.94581273 370.92132524 47.43967785 377.96389771 45.92993164 C396.90033794 41.87094742 415.84321883 37.84295254 434.7890625 33.828125 C436.2362775 33.52141681 437.68349226 33.21470752 439.13070679 32.90799713 C445.64823017 31.52677891 452.16581427 30.1458474 458.68344545 28.76513791 C471.02952658 26.14970446 483.37522179 23.53245332 495.72057486 20.91358542 C500.29083199 19.94410403 504.86122232 18.97525214 509.43164062 18.00653076 C522.37299428 15.26245569 535.31198176 12.50789449 548.24708152 9.73450947 C550.41301565 9.27024521 552.57903416 8.80637698 554.74508858 8.34267426 C555.44888834 8.19200579 556.1526881 8.04133733 556.87781513 7.88610315 C558.28332803 7.58522964 559.68884533 7.28437669 561.09436715 6.98354483 C565.17552564 6.10975861 569.25607031 5.2331736 573.33617687 4.35448933 C576.42364721 3.69035705 579.51194336 3.03008405 582.60009766 2.36914062 C583.71671909 2.12768311 584.83334053 1.88622559 585.98379898 1.63745117 C587.00207653 1.42020386 588.02035408 1.20295654 589.06948853 0.97912598 C590.3971244 0.69378872 590.3971244 0.69378872 591.75158119 0.40268707 C594 0 594 0 597 0 C597 4.29 597 8.58 597 13 C567.68949152 19.61033657 538.30421546 25.85391203 508.90642548 32.0628891 C503.03531086 33.30328676 497.16456428 34.54542289 491.29382229 35.78758264 C480.12890125 38.14988786 468.96370752 40.5109005 457.79833984 42.87109375 C444.60059161 45.66101794 431.40358388 48.45442649 418.20703125 51.25 C417.26376669 51.44981161 416.32050213 51.64962322 415.34865379 51.85548973 C409.02408124 53.195226 402.69953828 54.53510192 396.375 55.875 C389.65629703 57.29839917 382.93756152 58.72164455 376.21875 60.14453125 C375.04143783 60.39386382 375.04143783 60.39386382 373.84034157 60.64823341 C363.66683521 62.80258611 353.49228917 64.95194799 343.3166008 67.09597015 C338.9732556 68.01126475 334.63012137 68.92756035 330.28692627 69.84356689 C326.99673732 70.53684851 323.70615045 71.22821613 320.41552734 71.91943359 C318.50356218 72.32250317 316.59161427 72.72565459 314.6796875 73.12890625 C313.40236755 73.39618782 313.40236755 73.39618782 312.09924316 73.66886902 C309.0042343 74.32322602 306.00396968 74.99867677 303 76 C295.49855914 76.41461126 288.77393481 75.14855008 281.46313477 73.54760742 C280.22932068 73.28513749 278.99550659 73.02266756 277.7243042 72.752244 C274.33814742 72.0317063 270.95451516 71.29989793 267.57120633 70.5661211 C263.95923283 69.78489093 260.34496732 69.01440732 256.73094177 68.24273682 C250.55237389 66.92204392 244.37520494 65.59497717 238.19897461 64.26339722 C228.52979688 62.17885111 218.8579168 60.10702965 209.18554688 58.03735352 C205.95216286 57.3453358 202.71879826 56.65322743 199.48544312 55.96107483 C198.68711827 55.79018788 197.88879342 55.61930092 197.06627691 55.44323558 C191.4262424 54.23576463 185.78659417 53.0265005 180.14712524 51.81639099 C155.34280122 46.49437615 130.5267342 41.22976035 105.70148849 36.00616074 C98.67696889 34.5275061 91.65322163 33.0451839 84.62935066 31.56345177 C82.16465264 31.04352102 79.69993489 30.52368392 77.23521423 30.00386047 C61.84292326 26.75727449 46.45166427 23.50586552 31.06396484 20.23757935 C28.39268049 19.67029972 25.72113113 19.10429652 23.04931641 18.53952026 C19.49065186 17.78676341 15.93272536 17.03061871 12.375 16.2734375 C11.33738525 16.05469467 10.29977051 15.83595184 9.23071289 15.61058044 C8.29606201 15.41086136 7.36141113 15.21114227 6.3984375 15.00537109 C5.59067871 14.83395599 4.78291992 14.66254089 3.95068359 14.4859314 C2 14 2 14 0 13 C0 8.71 0 4.42 0 0 Z " fill="#1D9ADD" transform="translate(2,483)"/>
<path d="M0 0 C44.22 0 88.44 0 134 0 C134 44.22 134 88.44 134 134 C120.8 134 107.6 134 94 134 C94 125.09 94 116.18 94 107 C98.29 107 102.58 107 107 107 C107 80.6 107 54.2 107 27 C80.6 27 54.2 27 27 27 C27 31.62 27 36.24 27 41 C18.09 41 9.18 41 0 41 C0 27.47 0 13.94 0 0 Z " fill="#FAFBFC" transform="translate(96,79)"/>
<path d="M0 0 C8.91 0 17.82 0 27 0 C27 17.49 27 34.98 27 53 C44.49 53 61.98 53 80 53 C80 61.91 80 70.82 80 80 C53.6 80 27.2 80 0 80 C0 53.6 0 27.2 0 0 Z " fill="#CBD6DF" transform="translate(96,133)"/>
<path d="M0 0 C33.71428571 0 33.71428571 0 42.59375 8.53125 C49.64819178 16.13898134 50.50630467 23.85453786 50.4375 33.875 C50.4674707 35.41220703 50.4674707 35.41220703 50.49804688 36.98046875 C50.49261161 45.53557681 48.48906711 52.11998362 43.875 59.3125 C31.19923669 71.16158309 17.49348971 68 0 68 C0 45.56 0 23.12 0 0 Z " fill="#F8FBFE" transform="translate(480,308)"/>
<path d="M0 0 C33 0 33 0 41 4 C45.98514966 9.3033507 47.3570615 12.22614326 47.28515625 19.32421875 C46.73620189 24.47536582 44.62506168 28.47053018 40.875 32 C39 33 39 33 37 33 C37 33.66 37 34.32 37 35 C37.721875 35 38.44375 35 39.1875 35 C42.85544767 36.30415917 44.05876793 37.75745273 46.00390625 41.078125 C47.61533376 45.80497903 47.64815309 50.59937717 47.72363281 55.56420898 C47.79454053 59.83003559 48.03790848 63.09926825 50 67 C48.37536158 67.05395478 46.75021459 67.09277195 45.125 67.125 C44.22007812 67.14820313 43.31515625 67.17140625 42.3828125 67.1953125 C40 67 40 67 38 65 C36.44877995 60.25813926 36.72119795 55.14641259 36.65820312 50.19921875 C36.51670177 46.4412061 36.44581263 44.57383622 34.08203125 41.53125 C30.94361419 39.22307085 29.05954049 38.84588424 25.2109375 38.68359375 C24.36321777 38.64548584 23.51549805 38.60737793 22.64208984 38.56811523 C21.5639502 38.52501221 20.48581055 38.48190918 19.375 38.4375 C15.95125 38.293125 12.5275 38.14875 9 38 C9 47.57 9 57.14 9 67 C6.03 67 3.06 67 0 67 C0 44.89 0 22.78 0 0 Z " fill="#F7FBFD" transform="translate(200,309)"/>
<path d="M0 0 C5.28 0 10.56 0 16 0 C16 17.82 16 35.64 16 54 C10.72 54 5.44 54 0 54 C-3.23988875 49.96123457 -5.14909559 47.39286321 -7.14111328 42.8828125 C-8.01588737 40.96517244 -8.99161328 39.14769871 -10.02734375 37.3125 C-15 28.50058057 -15 28.50058057 -15 26 C-15.66 26 -16.32 26 -17 26 C-17 34.91 -17 43.82 -17 53 C-21.95 53 -26.9 53 -32 53 C-32 35.84 -32 18.68 -32 1 C-26.39 1 -20.78 1 -15 1 C-13.205625 4.1246875 -13.205625 4.1246875 -11.375 7.3125 C-11.01196777 7.94325439 -10.64893555 8.57400879 -10.27490234 9.22387695 C-7.09635378 14.77352688 -4.06515472 20.38054969 -1 26 C-0.67 17.42 -0.34 8.84 0 0 Z " fill="#F9FAFB" transform="translate(364,118)"/>
<path d="M0 0 C5.28 0 10.56 0 16 0 C16.03738281 2.48015625 16.07476562 4.9603125 16.11328125 7.515625 C16.15951356 9.92180116 16.21074087 12.32782279 16.26245117 14.73388672 C16.2956727 16.40403833 16.32371334 18.07430146 16.34643555 19.74462891 C16.38003334 22.14794363 16.43234946 24.55023899 16.48828125 26.953125 C16.49467117 27.69806213 16.5010611 28.44299927 16.50764465 29.21051025 C16.62531112 33.37418494 16.9360689 36.04527646 20 39 C21.93100917 39.66349794 21.93100917 39.66349794 24 39.5625 C24.680625 39.58441406 25.36125 39.60632813 26.0625 39.62890625 C28.20203848 39.13480506 28.20203848 39.13480506 29.58911133 36.95605469 C31.33698845 33.29395118 31.47631719 30.05155167 31.51171875 26.07421875 C31.52966995 25.32662796 31.54762115 24.57903717 31.56611633 23.80879211 C31.62003849 21.43508442 31.65405554 19.06157568 31.6875 16.6875 C31.72068921 15.07223805 31.75518035 13.45700229 31.79101562 11.84179688 C31.87819258 7.89450553 31.93841042 3.94810429 32 0 C37.28 0 42.56 0 48 0 C48.09940554 5.40766124 48.17172051 10.81478228 48.21972656 16.22314453 C48.23975373 18.06015293 48.26698382 19.89709829 48.30175781 21.73388672 C48.35067065 24.38525002 48.37305763 27.03576541 48.390625 29.6875 C48.41127014 30.49928711 48.43191528 31.31107422 48.45318604 32.14746094 C48.45563715 38.47722564 46.93076475 43.74431647 42.62310791 48.52954102 C35.99792491 54.47965444 28.33738453 54.52052822 19.9296875 54.31640625 C13.28373936 53.78129512 9.12788314 51.76569026 4.0625 47.5625 C-0.26439424 42.1866617 -0.27587942 37.38923222 -0.1953125 30.76171875 C-0.1924826 29.88095169 -0.18965271 29.00018463 -0.18673706 28.09272766 C-0.17557833 25.29084455 -0.15048171 22.48928584 -0.125 19.6875 C-0.11496463 17.78320775 -0.10583975 15.87891048 -0.09765625 13.97460938 C-0.07565309 9.31628203 -0.04115294 4.65819594 0 0 Z " fill="#FCFDFD" transform="translate(392,119)"/>
<path d="M0 0 C13.34764748 -1.44010582 13.34764748 -1.44010582 19 0 C22.76310458 3.47122943 24.51184298 7.13823815 26 12 C26 12.66 26 13.32 26 14 C26.66 14 27.32 14 28 14 C28.226875 13.175 28.45375 12.35 28.6875 11.5 C29.3371875 9.7675 29.3371875 9.7675 30 8 C30.20238281 7.28070313 30.40476562 6.56140625 30.61328125 5.8203125 C31.75515324 2.99329903 32.47333071 1.77263709 35 0 C40.91655239 -1.04571624 47.04637116 -0.44513113 53 0 C51.57888795 3.01735362 49.91515963 5.6807136 47.99609375 8.40625 C47.42052734 9.23253906 46.84496094 10.05882812 46.25195312 10.91015625 C45.04103023 12.63855643 43.82748021 14.36511898 42.61132812 16.08984375 C42.03705078 16.91613281 41.46277344 17.74242187 40.87109375 18.59375 C40.34443115 19.34333984 39.81776855 20.09292969 39.27514648 20.86523438 C38.01216395 22.97963593 37.31211153 24.56234522 37 27 C38.29631625 29.43109854 38.29631625 29.43109854 40.3125 31.875 C41.04082031 32.83019531 41.76914062 33.78539062 42.51953125 34.76953125 C42.91736816 35.28467285 43.31520508 35.79981445 43.72509766 36.33056641 C46.04244463 39.36503952 48.27012279 42.46351162 50.5 45.5625 C50.94512939 46.17013184 51.39025879 46.77776367 51.84887695 47.40380859 C55 51.7705149 55 51.7705149 55 54 C48.4 54 41.8 54 35 54 C32.36 49.38 29.72 44.76 27 40 C26.34 40 25.68 40 25 40 C22.36 44.62 19.72 49.24 17 54 C10.73 54 4.46 54 -2 54 C-0.27805913 50.55611826 1.55790271 47.54852611 3.6953125 44.359375 C4.41074219 43.28945312 5.12617188 42.21953125 5.86328125 41.1171875 C6.61713721 39.99475789 7.37104411 38.87236249 8.125 37.75 C8.88693162 36.61212167 9.64865265 35.47410231 10.41015625 34.3359375 C12.27136994 31.5558968 14.13472375 28.77731584 16 26 C14.53192937 22.85413437 12.76231639 20.12495696 10.7421875 17.3046875 C10.11699219 16.42425781 9.49179687 15.54382813 8.84765625 14.63671875 C7.5262172 12.78670408 6.2032856 10.93775467 4.87890625 9.08984375 C4.25628906 8.21199219 3.63367188 7.33414063 2.9921875 6.4296875 C2.41839355 5.62772949 1.84459961 4.82577148 1.25341797 3.99951172 C0 2 0 2 0 0 Z " fill="#F6F8F9" transform="translate(449,118)"/>
<path d="M0 0 C19 0 19 0 25 4 C32.95832747 12.32006963 32.6063306 21.00902377 32.37109375 31.890625 C32.07156201 37.77040106 31.01972106 42.52830074 27 47 C18.21628236 54.26280155 12.43484807 53 0 53 C0 35.51 0 18.02 0 0 Z " fill="#209BDD" transform="translate(489,316)"/>
<path d="M0 0 C14.85 0 29.7 0 45 0 C45 2.64 45 5.28 45 8 C33.45 8 21.9 8 10 8 C10 14.93 10 21.86 10 29 C19.9 29 29.8 29 40 29 C40 31.64 40 34.28 40 37 C29.77 37 19.54 37 9 37 C9 44.92 9 52.84 9 61 C20.88 61 32.76 61 45 61 C45 63.31 45 65.62 45 68 C30.15 68 15.3 68 0 68 C0 45.56 0 23.12 0 0 Z " fill="#F1F9FD" transform="translate(144,308)"/>
<path d="M0 0 C14.52 0 29.04 0 44 0 C44 2.31 44 4.62 44 7 C32.45 7 20.9 7 9 7 C9 13.93 9 20.86 9 28 C19.23 28 29.46 28 40 28 C40 30.64 40 33.28 40 36 C29.77 36 19.54 36 9 36 C9 43.92 9 51.84 9 60 C20.55 60 32.1 60 44 60 C44 62.31 44 64.62 44 67 C29.48 67 14.96 67 0 67 C0 44.89 0 22.78 0 0 Z " fill="#F8FBFD" transform="translate(425,309)"/>
<path d="M0 0 C2.9375 2.5 2.9375 2.5 5 5 C5.78503906 5.90492188 5.78503906 5.90492188 6.5859375 6.828125 C8.27184624 9.41753179 8.48600719 11.18730935 8.6875 14.25 C8.78611328 15.58804687 8.78611328 15.58804687 8.88671875 16.953125 C8.94279297 17.96632813 8.94279297 17.96632813 9 19 C6.03 19 3.06 19 0 19 C-0.4125 17.5975 -0.825 16.195 -1.25 14.75 C-2.52187829 10.93436512 -3.70123393 8.47407455 -7 6 C-12.78888315 4.07037228 -18.87522693 4.03419406 -24.4375 6.5625 C-29.83649461 11.69812902 -31.23745713 15.59667404 -31.56640625 22.96484375 C-31.58119223 24.94517873 -31.59534905 26.92570618 -31.57641602 28.90600586 C-31.56254762 30.93054801 -31.59667606 32.95045617 -31.63476562 34.97460938 C-31.62109645 44.1375148 -30.43273176 49.41316509 -24.08984375 55.9765625 C-21.17291615 57.4050392 -18.79729409 57.39743788 -15.5625 57.375 C-13.89380859 57.38660156 -13.89380859 57.38660156 -12.19140625 57.3984375 C-8.68708703 56.96093375 -6.82305163 56.08093504 -4 54 C-1.32195512 50.46115497 -0.50919188 47.37905014 0 43 C2.97 43 5.94 43 9 43 C9.66514074 49.38535113 7.97657359 53.01616767 4 58 C-2.125716 64.125716 -8.04841889 66.14438158 -16.5 66.4375 C-23.43082227 66.23741853 -27.88984857 64.95307307 -32.93359375 60.1640625 C-41.4162259 50.95837854 -42.20127091 42.32206443 -42.3125 30.25 C-42.34150391 29.21617187 -42.37050781 28.18234375 -42.40039062 27.1171875 C-42.46917551 18.71484912 -40.85450759 11.37903846 -35.625 4.625 C-25.52434011 -5.47565989 -12.39955731 -6.9285049 0 0 Z " fill="#F3FAFD" transform="translate(123,311)"/>
<path d="M0 0 C15.18 0 30.36 0 46 0 C46 2.64 46 5.28 46 8 C34.12 8 22.24 8 10 8 C10 15.59 10 23.18 10 31 C19.9 31 29.8 31 40 31 C40 33.31 40 35.62 40 38 C30.1 38 20.2 38 10 38 C10 47.9 10 57.8 10 68 C6.7 68 3.4 68 0 68 C0 45.56 0 23.12 0 0 Z " fill="#EFF8FC" transform="translate(342,308)"/>
<path d="M0 0 C5.28 0 10.56 0 16 0 C16 12.87 16 25.74 16 39 C23.59 39 31.18 39 39 39 C39 43.29 39 47.58 39 52 C26.13 52 13.26 52 0 52 C0 34.84 0 17.68 0 0 Z " fill="#FEFEFE" transform="translate(253,119)"/>
<path d="M0 0 C21.59322034 0 21.59322034 0 27.77734375 5.61328125 C32.24629541 12.1587155 31.88688758 19.35268635 31 27 C29.25188098 33.7662489 25.89159529 35.79171765 20 40 C13.4 40 6.8 40 0 40 C0 26.8 0 13.6 0 0 Z " fill="#EFF7FC" transform="translate(304,412)"/>
<path d="M0 0 C17.49 0 34.98 0 53 0 C53 2.64 53 5.28 53 8 C45.74 8 38.48 8 31 8 C31 27.8 31 47.6 31 68 C28.03 68 25.06 68 22 68 C22 48.2 22 28.4 22 8 C14.74 8 7.48 8 0 8 C0 5.36 0 2.72 0 0 Z " fill="#F4FAFD" transform="translate(253,308)"/>
<path d="M0 0 C5.61 0 11.22 0 17 0 C17 17.82 17 35.64 17 54 C11.39 54 5.78 54 0 54 C0 36.18 0 18.36 0 0 Z " fill="#F2F5F7" transform="translate(303,118)"/>
<path d="M0 0 C2.64 0 5.28 0 8 0 C9.57534229 3.91093197 11.14163145 7.82533146 12.69970703 11.74316406 C13.23077256 13.07487812 13.76428012 14.40562108 14.30029297 15.73535156 C15.07125836 17.6491766 15.83331351 19.56634616 16.59375 21.484375 C17.05458984 22.63647461 17.51542969 23.78857422 17.99023438 24.97558594 C19 28 19 28 19 32 C19.66 32 20.32 32 21 32 C21.11859375 31.13415283 21.2371875 30.26830566 21.359375 29.3762207 C21.99857118 26.00753015 22.96890663 23.15558367 24.25 19.98046875 C24.6934375 18.87638672 25.136875 17.77230469 25.59375 16.63476562 C26.0578125 15.49716797 26.521875 14.35957031 27 13.1875 C27.69609375 11.45209961 27.69609375 11.45209961 28.40625 9.68164062 C31.85498768 1.14501232 31.85498768 1.14501232 33 0 C35.31 0 37.62 0 40 0 C40 13.2 40 26.4 40 40 C38.35 40 36.7 40 35 40 C34.67 30.43 34.34 20.86 34 11 C30.42405522 19.79530013 30.42405522 19.79530013 26.84985352 28.59130859 C26.40569092 29.68266113 25.96152832 30.77401367 25.50390625 31.8984375 C25.04830322 33.01911621 24.5927002 34.13979492 24.12329102 35.29443359 C23.46345734 36.8837135 22.76957015 38.46085969 22 40 C20.68 40 19.36 40 18 40 C14.37 31.42 10.74 22.84 7 14 C6.67 22.91 6.34 31.82 6 41 C4.02 41 2.04 41 0 41 C0 27.47 0 13.94 0 0 Z " fill="#F3F9FD" transform="translate(342,412)"/>
<path d="M0 0 C4.63198151 1.77395037 6.8897437 4.54501448 9 9 C9.77050189 14.67369576 9.79613772 19.37929107 7.25 24.5625 C2.43268875 29.78125385 2.43268875 29.78125385 -1.83984375 30.43359375 C-10.16306189 30.44408961 -10.16306189 30.44408961 -14.0625 28.375 C-18.00678425 23.54007092 -19.5753757 19.5117816 -19.35546875 13.3125 C-18.62707337 8.57392788 -16.68217317 4.59094903 -13.19921875 1.296875 C-9.11585117 -1.11107888 -4.58623573 -0.4913824 0 0 Z " fill="#073966" transform="translate(465,183)"/>
<path d="M0 0 C3.3 0 6.6 0 10 0 C10 22.44 10 44.88 10 68 C6.7 68 3.4 68 0 68 C0 45.56 0 23.12 0 0 Z " fill="#ECF6FC" transform="translate(398,308)"/>
<path d="M0 0 C3.3 0 6.6 0 10 0 C10 22.44 10 44.88 10 68 C6.7 68 3.4 68 0 68 C0 45.56 0 23.12 0 0 Z " fill="#EFF8FC" transform="translate(316,308)"/>
<path d="M0 0 C6 0 6 0 7.73046875 1.5546875 C8.21128906 2.32039063 8.69210937 3.08609375 9.1875 3.875 C9.75984375 4.76703125 10.3321875 5.6590625 10.921875 6.578125 C11.61587373 7.71796534 12.30841106 8.85869594 13 10 C13.96287152 11.55770611 14.92646641 13.11496521 15.890625 14.671875 C18.62538374 19.09637207 21.30873676 23.54778673 24 28 C24.33 18.76 24.66 9.52 25 0 C26.98 0 28.96 0 31 0 C31 13.2 31 26.4 31 40 C25 40 25 40 23.32568359 38.38500977 C22.89594238 37.64049561 22.46620117 36.89598145 22.0234375 36.12890625 C21.5294043 35.30664551 21.03537109 34.48438477 20.52636719 33.63720703 C20.02266602 32.76692871 19.51896484 31.89665039 19 31 C17.9357771 29.31774673 16.86545308 27.63933763 15.7890625 25.96484375 C14.73298929 24.28993542 13.67854529 22.61399958 12.625 20.9375 C10.76875 17.988125 8.9125 15.03875 7 12 C6.67 21.57 6.34 31.14 6 41 C4.02 41 2.04 41 0 41 C0 27.47 0 13.94 0 0 Z " fill="#EFF8FC" transform="translate(408,412)"/>
<path d="M0 0 C3.526875 -0.0825 7.05375 -0.165 10.6875 -0.25 C11.79053467 -0.28641602 12.89356934 -0.32283203 14.0300293 -0.36035156 C21.27456121 -0.44251766 21.27456121 -0.44251766 25.125 1.90625 C28.59009065 5.77560123 29.5042545 8.62830369 29.39453125 13.96484375 C28.68647817 17.61727597 26.62465368 19.43783808 24 22 C21.49502996 23.25248502 19.79146726 23.11374406 16.9921875 23.09765625 C16.1038623 23.09515869 15.21553711 23.09266113 14.30029297 23.09008789 C13.16994629 23.08098389 12.03959961 23.07187988 10.875 23.0625 C5.491875 23.0315625 5.491875 23.0315625 0 23 C0 15.41 0 7.82 0 0 Z " fill="#1D9ADD" transform="translate(209,316)"/>
<path d="M0 0 C1.98 0 3.96 0 6 0 C7.58931821 3.9142637 9.1703119 7.83184104 10.75 11.75 C11.1934375 12.84183594 11.636875 13.93367188 12.09375 15.05859375 C20 34.70795037 20 34.70795037 20 40 C18.35 40 16.7 40 15 40 C13.515 35.05 13.515 35.05 12 30 C6.06 30 0.12 30 -6 30 C-6.495 32.475 -6.495 32.475 -7 35 C-7.63437344 36.6792238 -8.29289322 38.35008418 -9 40 C-10.65 40 -12.3 40 -14 40 C-13.36424474 34.97581521 -11.89113714 30.65470895 -10.05859375 25.9765625 C-9.77146011 25.23038666 -9.48432648 24.48421082 -9.18849182 23.71542358 C-8.27680874 21.34985577 -7.35729089 18.9874255 -6.4375 16.625 C-5.81523393 15.01452424 -5.19348364 13.40384908 -4.57226562 11.79296875 C-3.05413629 7.85964658 -1.52897647 3.92911764 0 0 Z " fill="#F2F9FD" transform="translate(278,412)"/>
<path d="M0 0 C12.22222222 0 12.22222222 0 16.7578125 4.4921875 C20.28058996 8.76826329 19.52517569 14.75943219 19.421875 20.046875 C18.92717416 24.68240508 17.93099626 26.78871218 14.60546875 29.93359375 C9.794694 33.12907187 6.32480805 32 0 32 C0 21.44 0 10.88 0 0 Z " fill="#1F9BDD" transform="translate(310,416)"/>
<path d="M0 0 C3.65866897 1.73936721 5.40416413 2.75273058 7.70703125 6.20703125 C7.83203125 8.89453125 7.83203125 8.89453125 7.70703125 11.20703125 C5.39453125 11.51953125 5.39453125 11.51953125 2.70703125 11.20703125 C0.95703125 8.76953125 0.95703125 8.76953125 -0.29296875 6.20703125 C-1.95858274 4.54141726 -3.9525958 5.0358718 -6.23046875 5.01953125 C-7.12636719 5.00535156 -8.02226562 4.99117188 -8.9453125 4.9765625 C-11.48411409 4.97508356 -11.48411409 4.97508356 -13.29296875 7.20703125 C-13.45977984 10.29050951 -13.45977984 10.29050951 -13.29296875 13.20703125 C-8.92785773 15.47042215 -4.66522602 17.46433387 -0.04296875 19.14453125 C4.07890791 20.78059922 6.61259315 22.11335678 8.70703125 26.20703125 C9.18172569 30.00458674 9.0309931 32.4151245 7.58203125 35.95703125 C4.58200885 39.55705813 1.78735015 40.94973691 -2.8828125 41.52734375 C-9.24715293 41.78925076 -13.22177572 41.11607588 -18.29296875 37.20703125 C-20.55005914 34.22184718 -21.29296875 32.95784297 -21.29296875 29.20703125 C-19.31296875 29.20703125 -17.33296875 29.20703125 -15.29296875 29.20703125 C-15.00421875 30.01140625 -14.71546875 30.81578125 -14.41796875 31.64453125 C-13.56034307 34.33967805 -13.56034307 34.33967805 -11.29296875 35.20703125 C-9.65041084 35.32818046 -8.00244397 35.38243892 -6.35546875 35.39453125 C-5.48019531 35.40871094 -4.60492188 35.42289062 -3.703125 35.4375 C-1.0305254 35.37366474 -1.0305254 35.37366474 1.70703125 33.20703125 C2.37383493 30.24982497 2.37383493 30.24982497 1.70703125 27.20703125 C-1.59535891 24.83048976 -4.93893987 23.55536064 -8.79296875 22.33203125 C-14.17589271 20.44583148 -17.66625278 18.46046319 -20.29296875 13.20703125 C-20.86818284 8.9887946 -20.50873127 7.51868823 -18.04296875 3.95703125 C-12.82872905 -1.25720845 -7.03892294 -2.43424422 0 0 Z " fill="#EFF8FC" transform="translate(181.29296875,411.79296875)"/>
<path d="M0 0 C2.375 1.875 2.375 1.875 4 4 C4.25 6.75 4.25 6.75 4 9 C1.6875 9.3125 1.6875 9.3125 -1 9 C-2.75 6.5625 -2.75 6.5625 -4 4 C-5.66561399 2.33438601 -7.65962705 2.82884055 -9.9375 2.8125 C-10.83339844 2.79832031 -11.72929687 2.78414063 -12.65234375 2.76953125 C-15.19114534 2.76805231 -15.19114534 2.76805231 -17 5 C-17.16681109 8.08347826 -17.16681109 8.08347826 -17 11 C-12.62914061 13.26637153 -8.39340792 15.23533964 -3.75 16.875 C0.78895014 18.66264805 2.97444928 20.39647564 5 25 C5.5625 28 5.5625 28 5 31 C2.41891184 34.72823845 0.21980751 37.31981976 -4 39 C-11.18790513 39.92708324 -16.90791962 38.86445627 -22.875 34.6875 C-24.49751178 32.25373233 -24.68129825 29.86831578 -25 27 C-22.6875 26.6875 -22.6875 26.6875 -20 27 C-18.3125 29.4375 -18.3125 29.4375 -17 32 C-14.53630468 33.23184766 -12.8105499 33.16732342 -10.0625 33.1875 C-9.18722656 33.20167969 -8.31195313 33.21585937 -7.41015625 33.23046875 C-4.73755665 33.16663349 -4.73755665 33.16663349 -2 31 C-1.33319632 28.04279372 -1.33319632 28.04279372 -2 25 C-5.29664138 22.63348244 -8.66467763 21.31759847 -12.5 20.0625 C-17.26233022 18.38734072 -21.62590749 16.74818503 -24 12 C-24.79265987 5.20577251 -24.79265987 5.20577251 -22.80078125 2.17578125 C-16.43706584 -4.44440632 -7.71221197 -4.90777125 0 0 Z " fill="#F0F8FC" transform="translate(255,414)"/>
<path d="M0 0 C1.98 0 3.96 0 6 0 C7.5066972 2.7881022 9.00419804 5.58103958 10.5 8.375 C10.92925781 9.1690625 11.35851562 9.963125 11.80078125 10.78125 C12.40986328 11.92207031 12.40986328 11.92207031 13.03125 13.0859375 C13.59682617 14.1385376 13.59682617 14.1385376 14.17382812 15.21240234 C15 17 15 17 15 19 C17.27246338 16.9086545 18.69102273 14.97741243 20.04296875 12.20703125 C20.39423828 11.49482422 20.74550781 10.78261719 21.10742188 10.04882812 C21.46384766 9.31083984 21.82027344 8.57285156 22.1875 7.8125 C22.73954102 6.68811523 22.73954102 6.68811523 23.30273438 5.54101562 C24.20728218 3.69667788 25.10437576 1.84868755 26 0 C28.31 0 30.62 0 33 0 C32.13754113 1.74417861 31.27446 3.48805196 30.40844727 5.23046875 C29.67275969 6.71200488 28.94021428 8.19510515 28.21069336 9.6796875 C26.34278885 13.4494509 24.39564911 16.99341413 22.0625 20.5 C18.52525851 26.56553827 19.09216035 34.17175581 19 41 C17.02 41 15.04 41 13 41 C13.06703125 40.02804687 13.1340625 39.05609375 13.203125 38.0546875 C13.54513087 24.6272396 8.01595734 15.18828872 1.08569336 3.97680664 C0 2 0 2 0 0 Z " fill="#F2F9FD" transform="translate(194,412)"/>
<path d="M0 0 C11 0 11 0 14.6875 1.625 C17.66011657 4.59761657 17.48635728 8.02505607 17.625 12.0625 C17.58521849 18.27504567 17.58521849 18.27504567 15.0859375 21.37109375 C9.68835611 25.586059 9.15515268 24 0 24 C0 16.08 0 8.16 0 0 Z " fill="#013462" transform="translate(367,186)"/>
<path d="M0 0 C26.4 0 52.8 0 80 0 C80 26.4 80 52.8 80 80 C75.71 79.67 71.42 79.34 67 79 C67 78.67 67 78.34 67 78 C70.63 78 74.26 78 78 78 C78 52.92 78 27.84 78 2 C52.59 2 27.18 2 1 2 C0.67 1.34 0.34 0.68 0 0 Z " fill="#244A72" transform="translate(123,106)"/>
<path d="M0 0 C2.33276367 0.14501953 2.33276367 0.14501953 5 1 C6.4855957 3.45263672 6.4855957 3.45263672 7.67578125 6.6796875 C8.11083984 7.83597656 8.54589844 8.99226562 8.99414062 10.18359375 C9.42919922 11.40175781 9.86425781 12.61992187 10.3125 13.875 C10.9940918 15.69064453 10.9940918 15.69064453 11.68945312 17.54296875 C15 26.49389098 15 26.49389098 15 30 C14.01 30 13.02 30 12 30 C11.01 27.36 10.02 24.72 9 22 C2.07 21.505 2.07 21.505 -5 21 C-5.99 23.97 -6.98 26.94 -8 30 C-8.99 30 -9.98 30 -11 30 C-9.0173911 22.93487572 -6.592956 16.16273165 -3.8125 9.375 C-3.44447266 8.46621094 -3.07644531 7.55742187 -2.69726562 6.62109375 C-1.80216521 4.41240441 -0.9030465 2.20544952 0 0 Z " fill="#DBE3E9" transform="translate(400,183)"/>
<path d="M0 0 C17.08571429 0 17.08571429 0 22 4 C24.46300136 7.69450204 24.36729083 10.59641188 24.375 14.875 C24.39949219 15.58269531 24.42398437 16.29039062 24.44921875 17.01953125 C24.4691622 20.58940899 24.12128485 22.79564334 22.2890625 25.8828125 C15.58315667 32.08520322 9.50465844 30 0 30 C0 20.1 0 10.2 0 0 Z M4 3 C4 10.92 4 18.84 4 27 C13.30863201 27.75094538 13.30863201 27.75094538 20 24 C22.35232753 19.29534494 21.58893108 13.09425382 21 8 C19.45002943 4.6904317 18.57132022 4.57380213 15 3 C11.37 3 7.74 3 4 3 Z " fill="#C9D4DE" transform="translate(363,183)"/>
<path d="M0 0 C4 0 4 0 5.38452148 1.35766602 C5.79259033 1.98342529 6.20065918 2.60918457 6.62109375 3.25390625 C7.08193359 3.94419922 7.54277344 4.63449219 8.01757812 5.34570312 C8.48615234 6.07724609 8.95472656 6.80878906 9.4375 7.5625 C10.37311859 8.98085107 11.30931271 10.39882267 12.24609375 11.81640625 C12.65529053 12.45006104 13.0644873 13.08371582 13.48608398 13.73657227 C15.58472933 16.87421796 17.8059407 19.92831698 20 23 C20.33 15.41 20.66 7.82 21 0 C21.99 0 22.98 0 24 0 C24 9.9 24 19.8 24 30 C19 29 19 29 16.97265625 26.59375 C16.34230469 25.5728125 15.71195312 24.551875 15.0625 23.5 C14.38316406 22.41976562 13.70382812 21.33953125 13.00390625 20.2265625 C12.34261719 19.16179687 11.68132812 18.09703125 11 17 C9.83950299 15.28746954 8.67362536 13.57856021 7.5 11.875 C5 8.24468085 5 8.24468085 5 6 C4.34 6 3.68 6 3 6 C3 13.92 3 21.84 3 30 C2.01 30 1.02 30 0 30 C0 20.1 0 10.2 0 0 Z " fill="#E7ECF0" transform="translate(334,183)"/>
<path d="M0 0 C5 1 5 1 6.94458008 3.13305664 C7.84793091 4.50772095 7.84793091 4.50772095 8.76953125 5.91015625 C9.76049805 7.39418945 9.76049805 7.39418945 10.77148438 8.90820312 C11.44501953 9.94912109 12.11855469 10.99003906 12.8125 12.0625 C13.50537109 13.10728516 14.19824219 14.15207031 14.91210938 15.22851562 C16.6214471 17.81020502 18.31248835 20.40399152 20 23 C20.33 15.41 20.66 7.82 21 0 C21.99 0 22.98 0 24 0 C24 9.9 24 19.8 24 30 C22.68 30 21.36 30 20 30 C18.16894531 28.01220703 18.16894531 28.01220703 16.328125 25.2578125 C15.66425781 24.27425781 15.00039063 23.29070312 14.31640625 22.27734375 C13.29353516 20.71693359 13.29353516 20.71693359 12.25 19.125 C11.55261719 18.09246094 10.85523438 17.05992187 10.13671875 15.99609375 C5 8.30609406 5 8.30609406 5 6 C4.34 6 3.68 6 3 6 C3 13.92 3 21.84 3 30 C2.01 30 1.02 30 0 30 C0 20.1 0 10.2 0 0 Z " fill="#E2E8ED" transform="translate(478,183)"/>
<path d="M0 0 C3.48118905 2.00579895 6.19314642 4.38629285 8 8 C9.00294214 21.96404054 9.00294214 21.96404054 5 27 C0.97607403 30.13866226 -1.51884715 31.34599223 -6.625 30.9375 C-11.12323987 30.14324372 -14.45454378 29.2063421 -17.1875 25.3046875 C-19.97104017 20.37550179 -20.63365497 16.61237256 -20 11 C-16.58139 1.31393833 -9.83261333 -2.06328355 0 0 Z M-15 7 C-16.96132999 10.92265998 -16.34738685 15.71349439 -16 20 C-14.45569411 23.70633414 -12.57196906 26.11479411 -9 28 C-4.03892575 28.5412081 -0.93167796 28.14534237 3 25 C6.08529585 20.15478187 5.74496858 14.52456897 5 9 C3.37030283 5.77089743 1.27850835 3.63925417 -2 2 C-8.39348263 1.26229047 -10.64864904 2.64864904 -15 7 Z " fill="#ECF1F4" transform="translate(293,183)"/>
<path d="M0 0 C1.98 0 3.96 0 6 0 C6 13.86 6 27.72 6 42 C4.02 42 2.04 42 0 42 C0 28.14 0 14.28 0 0 Z " fill="#E9F5FB" transform="translate(392,411)"/>
<path d="M0 0 C4.63198151 1.77395037 6.8897437 4.54501448 9 9 C9.77050189 14.67369576 9.79613772 19.37929107 7.25 24.5625 C2.43268875 29.78125385 2.43268875 29.78125385 -1.83984375 30.43359375 C-10.16306189 30.44408961 -10.16306189 30.44408961 -14.0625 28.375 C-18.00678425 23.54007092 -19.5753757 19.5117816 -19.35546875 13.3125 C-18.62707337 8.57392788 -16.68217317 4.59094903 -13.19921875 1.296875 C-9.11585117 -1.11107888 -4.58623573 -0.4913824 0 0 Z M-14 6 C-16.73929224 10.4336998 -16.66260156 14.93868208 -16 20 C-14.00342873 23.85544798 -12.60292362 25.59805092 -9 28 C-4.00098397 28.46287185 -0.99126735 28.10431905 3 25 C6.77211832 20.91659036 6.56580921 17.28090959 6.40234375 11.92578125 C6.02102507 9.15289103 5.65491228 7.57714168 4.0625 5.3125 C-2.16919595 0.60693367 -8.09942057 0.67508685 -14 6 Z " fill="#EAEFF2" transform="translate(465,183)"/>
<path d="M0 0 C6.93 0 13.86 0 21 0 C21 0.66 21 1.32 21 2 C15.06 2 9.12 2 3 2 C3 5.63 3 9.26 3 13 C8.61 13 14.22 13 20 13 C20 13.99 20 14.98 20 16 C14.39 16 8.78 16 3 16 C3 19.63 3 23.26 3 27 C8.94 27 14.88 27 21 27 C21 27.99 21 28.98 21 30 C14.07 30 7.14 30 0 30 C0 20.1 0 10.2 0 0 Z " fill="#E1E7EC" transform="translate(308,80)"/>
<path d="M0 0 C0.99 0 1.98 0 3 0 C3.01458252 0.7113208 3.02916504 1.4226416 3.04418945 2.15551758 C3.11861006 5.37506332 3.21529 8.59356518 3.3125 11.8125 C3.33505859 12.93205078 3.35761719 14.05160156 3.38085938 15.20507812 C3.41630859 16.27822266 3.45175781 17.35136719 3.48828125 18.45703125 C3.51446533 19.44678955 3.54064941 20.43654785 3.56762695 21.45629883 C3.81399066 24.01487599 3.81399066 24.01487599 5.28588867 25.8190918 C7.70649763 27.48672967 10.09251122 27.41307836 12.96484375 27.49609375 C15.92591791 26.7742964 17.07402125 25.32608625 19 23 C19.63529648 20.40584335 19.63529648 20.40584335 19.609375 17.578125 C19.64160156 16.55332031 19.67382812 15.52851563 19.70703125 14.47265625 C19.72121094 13.40917969 19.73539062 12.34570312 19.75 11.25 C19.77964844 10.17105469 19.80929687 9.09210938 19.83984375 7.98046875 C19.91046936 5.32023756 19.96320196 2.66087898 20 0 C20.99 0 21.98 0 23 0 C23.11674705 3.70806596 23.18743274 7.4156554 23.25 11.125 C23.28351563 12.17171875 23.31703125 13.2184375 23.3515625 14.296875 C23.43028848 20.51622775 23.26027483 24.31369769 19 29 C16.33963926 30.33018037 14.15744618 30.31665139 11.1875 30.4375 C9.63095703 30.52837891 9.63095703 30.52837891 8.04296875 30.62109375 C4.66137163 29.9308833 2.97831732 28.89364951 0.91772461 26.09692383 C-1.07810559 21.53661906 -0.49918276 16.50172819 -0.3125 11.625 C-0.28994141 10.50738281 -0.26738281 9.38976562 -0.24414062 8.23828125 C-0.18543378 5.4908011 -0.10336846 2.74610239 0 0 Z " fill="#E6EBEF" transform="translate(306,183)"/>
<path d="M0 0 C0.99 0 1.98 0 3 0 C3 4.29 3 8.58 3 13 C8.94 13 14.88 13 21 13 C21 8.71 21 4.42 21 0 C21.66 0 22.32 0 23 0 C23 9.57 23 19.14 23 29 C22.34 29 21.68 29 21 29 C21 24.38 21 19.76 21 15 C15.06 15 9.12 15 3 15 C3 19.95 3 24.9 3 30 C2.01 30 1.02 30 0 30 C0 20.1 0 10.2 0 0 Z " fill="#F7F8FA" transform="translate(279,80)"/>
<path d="M0 0 C6.27 0 12.54 0 19 0 C19 0.99 19 1.98 19 3 C13.72 3 8.44 3 3 3 C3 6.3 3 9.6 3 13 C7.62 13 12.24 13 17 13 C17 13.99 17 14.98 17 16 C12.38 16 7.76 16 3 16 C3 20.62 3 25.24 3 30 C2.01 30 1.02 30 0 30 C0 20.1 0 10.2 0 0 Z " fill="#DDE5EA" transform="translate(253,183)"/>
<path d="M0 0 C7.92 0 15.84 0 24 0 C24 0.99 24 1.98 24 3 C20.37 3 16.74 3 13 3 C13 11.91 13 20.82 13 30 C12.01 30 11.02 30 10 30 C10 21.09 10 12.18 10 3 C6.7 3 3.4 3 0 3 C0 2.01 0 1.02 0 0 Z " fill="#CFD9E2" transform="translate(412,183)"/>
<path d="M0 0 C7.59 0 15.18 0 23 0 C23 0.66 23 1.32 23 2 C19.7 2 16.4 2 13 2 C13 11.24 13 20.48 13 30 C12.01 30 11.02 30 10 30 C10 21.09 10 12.18 10 3 C6.7 3 3.4 3 0 3 C0 2.01 0 1.02 0 0 Z " fill="#EBEFF3" transform="translate(253,80)"/>
<path d="M0 0 C1.65 0.33 3.3 0.66 5 1 C5.99 4.3 6.98 7.6 8 11 C7.01 11.33 6.02 11.66 5 12 C4.34 9.36 3.68 6.72 3 4 C2.34 4 1.68 4 1 4 C0.89042969 4.58007812 0.78085937 5.16015625 0.66796875 5.7578125 C-0.3143365 10.59746277 -1.54821911 14.65366116 -4 19 C-0.37 19 3.26 19 7 19 C7 19.33 7 19.66 7 20 C3.37 20.33 -0.26 20.66 -4 21 C-5.98 25.455 -5.98 25.455 -8 30 C-8.99 30 -9.98 30 -11 30 C-9.0173911 22.93487572 -6.592956 16.16273165 -3.8125 9.375 C-3.44447266 8.46621094 -3.07644531 7.55742187 -2.69726562 6.62109375 C-1.80216521 4.41240441 -0.9030465 2.20544952 0 0 Z " fill="#E0E6EC" transform="translate(400,183)"/>
<path d="M0 0 C0.66 0 1.32 0 2 0 C2.84161854 2.08000011 3.67300763 4.16414146 4.5 6.25 C4.9640625 7.41015625 5.428125 8.5703125 5.90625 9.765625 C7 13 7 13 7 17 C3.04 17 -0.92 17 -5 17 C-3.7915371 11.05064416 -2.25422333 5.63555833 0 0 Z " fill="#249DDE" transform="translate(280,420)"/>
<path d="M0 0 C1.04473978 3.13421934 1.0093131 5.10671464 0.875 8.375 C0.85165235 12.80521576 0.9040603 15.59446632 4 19 C7.19299301 21.37776076 10.43690337 23.25308221 14 25 C3.78764946 24.35477524 3.78764946 24.35477524 0 21 C-3.6831756 15.7417822 -4.53625215 11.32777537 -4 5 C-3 2 -3 2 0 0 Z " fill="#DFE6EB" transform="translate(277,189)"/>
<path d="M0 0 C0.99 0 1.98 0 3 0 C3.01458252 0.7113208 3.02916504 1.4226416 3.04418945 2.15551758 C3.11861006 5.37506332 3.21529 8.59356518 3.3125 11.8125 C3.33505859 12.93205078 3.35761719 14.05160156 3.38085938 15.20507812 C3.41630859 16.27822266 3.45175781 17.35136719 3.48828125 18.45703125 C3.51446533 19.44678955 3.54064941 20.43654785 3.56762695 21.45629883 C4.06671749 24.39250678 4.86562549 25.05020469 7 27 C7 27.99 7 28.98 7 30 C3.60267295 28.5942095 1.91060797 27.1452949 0 24 C-0.34057617 21.34277344 -0.34057617 21.34277344 -0.29296875 18.359375 C-0.28330078 17.28945312 -0.27363281 16.21953125 -0.26367188 15.1171875 C-0.23853516 14.00601563 -0.21339844 12.89484375 -0.1875 11.75 C-0.17396484 10.62335938 -0.16042969 9.49671875 -0.14648438 8.3359375 C-0.11115645 5.55680736 -0.0618252 2.77864637 0 0 Z " fill="#DDE5EA" transform="translate(306,183)"/>
<path d="M0 0 C0.99 0 1.98 0 3 0 C3 9.9 3 19.8 3 30 C2.01 30 1.02 30 0 30 C0 20.1 0 10.2 0 0 Z " fill="#DCE4EA" transform="translate(439,183)"/>
<path d="M0 0 C0.66 0 1.32 0 2 0 C3.65 4.62 5.3 9.24 7 14 C3.37 14 -0.26 14 -4 14 C-3.30340887 10.51704434 -2.5755384 7.50265533 -1.4375 4.1875 C-1.16808594 3.39730469 -0.89867187 2.60710937 -0.62109375 1.79296875 C-0.41613281 1.20128906 -0.21117187 0.60960937 0 0 Z " fill="#093664" transform="translate(401,187)"/>
<path d="M0 0 C0.66 0 1.32 0 2 0 C2.10864945 2.06132142 2.18588321 4.12431321 2.25 6.1875 C2.29640625 7.33605469 2.3428125 8.48460937 2.390625 9.66796875 C1.91690628 13.70878943 0.91715934 15.20686954 -2 18 C-5.92501214 20.20328413 -9.3674265 20.21479946 -13.8125 20.125 C-14.97394531 20.10695312 -16.13539063 20.08890625 -17.33203125 20.0703125 C-18.21246094 20.04710937 -19.09289062 20.02390625 -20 20 C-20 19.67 -20 19.34 -20 19 C-18.75283203 18.94392578 -18.75283203 18.94392578 -17.48046875 18.88671875 C-15.85044922 18.78810547 -15.85044922 18.78810547 -14.1875 18.6875 C-13.10855469 18.62949219 -12.02960938 18.57148438 -10.91796875 18.51171875 C-7.71890137 17.95070426 -6.96036914 17.47842464 -5 15 C-4.46761719 14.57074219 -3.93523437 14.14148438 -3.38671875 13.69921875 C-1.37567001 11.23497593 -1.24848689 8.9314831 -0.8125 5.8125 C-0.65394531 4.72582031 -0.49539063 3.63914063 -0.33203125 2.51953125 C-0.16767578 1.27236328 -0.16767578 1.27236328 0 0 Z " fill="#DEE5EB" transform="translate(385,193)"/>
<path d="M0 0 C0.66 0 1.32 0 2 0 C2.5834231 10.93378113 2.5834231 10.93378113 -1 16 C-4.66062697 18.96807592 -7.35312297 19.32420072 -12 19 C-12.33 18.34 -12.66 17.68 -13 17 C-12.38511719 16.86464844 -11.77023437 16.72929687 -11.13671875 16.58984375 C-5.57240273 15.12671511 -5.57240273 15.12671511 -2 10.75 C-1.04151227 7.155671 -0.37747747 3.69927922 0 0 Z " fill="#E9EEF2" transform="translate(299,194)"/>
<path d="M0 0 C0.33 0 0.66 0 1 0 C1 9.9 1 19.8 1 30 C0.67 30 0.34 30 0 30 C-0.33 23.73 -0.66 17.46 -1 11 C-2.32 13.31 -3.64 15.62 -5 18 C-5.66 18 -6.32 18 -7 18 C-5.06375702 11.79522136 -2.74390859 5.89174281 0 0 Z " fill="#4DAFE4" transform="translate(376,422)"/>
<path d="M0 0 C0.66 0 1.32 0 2 0 C2 9.57 2 19.14 2 29 C-1 26 -1 26 -1.2487793 23.27270508 C-1.19117432 22.19915771 -1.13356934 21.12561035 -1.07421875 20.01953125 C-1.01943359 18.85615234 -0.96464844 17.69277344 -0.90820312 16.49414062 C-0.83537109 15.27919922 -0.76253906 14.06425781 -0.6875 12.8125 C-0.62626953 11.58595703 -0.56503906 10.35941406 -0.50195312 9.09570312 C-0.34853758 6.06279578 -0.18066191 3.03138658 0 0 Z " fill="#1295DB" transform="translate(431,412)"/>
<path d="M0 0 C0.33 0.99 0.66 1.98 1 3 C4.63 3 8.26 3 12 3 C12 3.33 12 3.66 12 4 C6.555 4.495 6.555 4.495 1 5 C-0.32 7.97 -1.64 10.94 -3 14 C-3.99 14 -4.98 14 -6 14 C-5.57316761 12.41375765 -5.13303842 10.8310902 -4.6875 9.25 C-4.32205078 7.92742187 -4.32205078 7.92742187 -3.94921875 6.578125 C-2.97874669 3.94227495 -1.78994356 2.14592674 0 0 Z " fill="#E5EAEF" transform="translate(395,199)"/>
<path d="M0 0 C3.45462112 0.25589786 4.27381547 1.28626163 6.75 3.875 C9 7 9 7 9 10 C8.34 10 7.68 10 7 10 C7 12.31 7 14.62 7 17 C6.67 17 6.34 17 6 17 C5.98582031 16.41992188 5.97164063 15.83984375 5.95703125 15.2421875 C5.58055291 9.07608273 4.22937708 6.44626822 0 2 C0 1.34 0 0.68 0 0 Z " fill="#D6DFE6" transform="translate(292,184)"/>
<path d="M0 0 C0.33 0.99 0.66 1.98 1 3 C-2.14591933 5.80045623 -4.067064 6.35261589 -8.25 6.1875 C-9.14203125 6.16042969 -10.0340625 6.13335937 -10.953125 6.10546875 C-11.96632813 6.05326172 -11.96632813 6.05326172 -13 6 C-13 5.34 -13 4.68 -13 4 C-12.31292969 3.87882813 -11.62585938 3.75765625 -10.91796875 3.6328125 C-9.56638672 3.38144531 -9.56638672 3.38144531 -8.1875 3.125 C-7.29417969 2.96257812 -6.40085937 2.80015625 -5.48046875 2.6328125 C-2.77272154 2.08811551 -2.77272154 2.08811551 0 0 Z " fill="#F1F4F6" transform="translate(326,207)"/>
<path d="M0 0 C0.66 0 1.32 0 2 0 C2.99 3.3 3.98 6.6 5 10 C4.34 10 3.68 10 3 10 C2.34 9.01 1.68 8.02 1 7 C0.01 7.33 -0.98 7.66 -2 8 C-1.34 5.36 -0.68 2.72 0 0 Z " fill="#234871" transform="translate(401,187)"/>
<path d="M0 0 C0.99 0 1.98 0 3 0 C3.99 3.3 4.98 6.6 6 10 C5.01 10.33 4.02 10.66 3 11 C2.87882812 10.36191406 2.75765625 9.72382813 2.6328125 9.06640625 C2.46523438 8.24011719 2.29765625 7.41382813 2.125 6.5625 C1.96257812 5.73878906 1.80015625 4.91507813 1.6328125 4.06640625 C1.42398437 3.38449219 1.21515625 2.70257813 1 2 C0.34 1.67 -0.32 1.34 -1 1 C-0.67 0.67 -0.34 0.34 0 0 Z " fill="#E9EDF1" transform="translate(402,184)"/>
<path d="M0 0 C1.06671952 3.20015856 0.94845472 4.88544294 0.5625 8.1875 C0.46066406 9.08855469 0.35882813 9.98960937 0.25390625 10.91796875 C0.12822266 11.94857422 0.12822266 11.94857422 0 13 C-0.33 13 -0.66 13 -1 13 C-1.33 10.69 -1.66 8.38 -2 6 C-2.33 8.31 -2.66 10.62 -3 13 C-3.33 13 -3.66 13 -4 13 C-4.125 5.375 -4.125 5.375 -3 2 C-2.01 1.34 -1.02 0.68 0 0 Z " fill="#B1C1CF" transform="translate(277,189)"/>
<path d="M0 0 C0.66 0 1.32 0 2 0 C2 3.63 2 7.26 2 11 C1.01 11.33 0.02 11.66 -1 12 C-0.67 8.04 -0.34 4.08 0 0 Z " fill="#FBFCFC" transform="translate(385,193)"/>
<path d="M0 0 C0.33 0.99 0.66 1.98 1 3 C4.63 3 8.26 3 12 3 C12 3.33 12 3.66 12 4 C7.38 4.33 2.76 4.66 -2 5 C-1 1 -1 1 0 0 Z " fill="#FAFBFB" transform="translate(395,199)"/>
<path d="M0 0 C0.66 0 1.32 0 2 0 C2 3.3 2 6.6 2 10 C1.01 10 0.02 10 -1 10 C-0.67 6.7 -0.34 3.4 0 0 Z " fill="#F8F9FA" transform="translate(299,194)"/>
</svg>
