<?xml version="1.0" encoding="UTF-8"?>
<svg id="Layer_1" data-name="Layer 1" xmlns="http://www.w3.org/2000/svg" viewBox="0 0 487.38 105.25">
  <defs>
    <style>
      .cls-1 {
        fill: #34c6f4;
      }

      .cls-1, .cls-2, .cls-3, .cls-4 {
        stroke-width: 0px;
      }

      .cls-2 {
        fill: #a5def1;
      }

      .cls-3 {
        fill: #333;
      }

      .cls-4 {
        fill: #0099cd;
      }
    </style>
  </defs>
  <g>
    <path class="cls-4" d="m78.22,35.02c0-13.42,0-16.51-.13-19.55h12.82c.38,2.05.38,3.63.49,5.94,2.37-4.54,6.43-6.98,11.85-6.98s9.16,2.4,10.81,7.28c2.38-3.74,5.88-7.28,12.96-7.28s13.32,3.69,13.32,16.87v51.62h-13.43v-49.17c0-4.7-1.24-7.29-5.02-7.29-4.72,0-5.84,3.66-5.84,10.31v46.15h-13.54v-48.85c0-6.15-1.82-7.61-5.05-7.61-4.79,0-5.81,3.69-5.81,10.12v46.33h-13.42v-47.9Z"/>
    <path class="cls-4" d="m162.63,64.08v1.46c0,4.6,1.56,7.67,5.74,7.67,4.71,0,6.01-3.81,6.01-14.68v-11.2c-2.07,3.19-4.88,4.91-10.36,4.91-10.57,0-14.91-7.92-14.91-20.05v-11.17c0-13.09,6.42-21.01,19.08-21.01s18.93,7.81,18.93,21.71v33.86c0,14.03-1.25,28.35-18.88,28.35-15.21,0-18.38-10-18.38-19.26v-.58h12.76Zm-.65-44.52v12.92c0,5.08,1.34,8.58,6.09,8.58s6.29-3.91,6.29-11.24v-10.31c0-5.78-1.57-8.9-6.18-8.9s-6.2,3.08-6.2,8.95Z"/>
    <path class="cls-3" d="m204.3,63.52v2.88c0,6.97,2.89,10.37,7.73,10.37,5.36,0,7.47-3.38,7.47-9.87,0-6.89-2.05-9.97-9.47-14.9-8.79-5.83-12.85-10.44-12.85-19.54s4.41-16.66,15.05-16.66c11.52,0,14.8,7.58,14.8,16.99v3.11h-8.1v-3.54c0-5.86-1.65-9.36-6.83-9.36-4.68,0-6.61,3.22-6.61,8.71s1.68,7.9,8.43,12.43c9.27,6.14,13.98,10.7,13.98,21.61,0,11.81-5.18,18.21-16.27,18.21-12.48,0-15.75-8.43-15.75-17.44v-3h8.41Z"/>
    <path class="cls-3" d="m241.73,16.83c5.09,34.17,6.75,46.01,7.44,54.75h.13c.95-8.68,2.75-19.08,8.94-54.75h8.49c5.95,36.07,7.82,46.29,8.56,54.63h.13c.65-7.34,1.67-15.7,7.65-54.63h8.37l-11.85,66.08h-8.89c-3.67-22.47-7.27-42.58-8.48-52.9h-.13c-.78,9.79-4.21,27.54-8.87,52.9h-8.99l-11.29-66.08h8.77Z"/>
    <path class="cls-3" d="m305.74,51.39v11.07c0,6.93,1.34,14.29,8.22,14.29,6.51,0,7.79-5.2,7.79-11.9v-.6h8.14v.51c0,7.83-1.85,19.18-15.97,19.18-13.06,0-16.33-8.72-16.33-22.15v-25.33c0-10.25,3.66-20.69,16.54-20.69s15.94,9.44,15.94,20.72v14.87h-24.33Zm16.28-6.88v-8.62c0-6.17-.89-12.9-7.97-12.9s-8.27,5.67-8.27,12.99v8.54h16.24Z"/>
    <path class="cls-3" d="m346.52,51.39v11.07c0,6.93,1.34,14.29,8.22,14.29,6.51,0,7.79-5.2,7.79-11.9v-.6h8.14v.51c0,7.83-1.85,19.18-15.97,19.18-13.06,0-16.33-8.72-16.33-22.15v-25.33c0-10.25,3.66-20.69,16.54-20.69s15.94,9.44,15.94,20.72v14.87h-24.33Zm16.28-6.88v-8.62c0-6.17-.89-12.9-7.97-12.9s-8.27,5.67-8.27,12.99v8.54h16.24Z"/>
    <path class="cls-3" d="m389.1,77.34v27.91h-8.28V35.92c0-9.04,0-14.87-.13-19.08h7.88c.18,1.43.35,3.96.35,7.19,1.58-4.47,5.11-8.23,11.92-8.23,9.01,0,13.4,6.02,13.4,19.1v28.25c0,14.5-5.79,20.81-14.29,20.81-6.78,0-9.53-3.53-10.85-6.61Zm16.78-13.99v-28.3c0-8.46-3.12-11.62-7.49-11.62-7.52,0-9.37,6.54-9.37,15.36v21.32c0,7.91,1.05,16.2,8.76,16.2,5.75,0,8.1-4.66,8.1-12.96Z"/>
    <path class="cls-3" d="m431.22,51.39v11.07c0,6.93,1.34,14.29,8.22,14.29,6.51,0,7.79-5.2,7.79-11.9v-.6h8.14v.51c0,7.83-1.85,19.18-15.97,19.18-13.06,0-16.33-8.72-16.33-22.15v-25.33c0-10.25,3.66-20.69,16.54-20.69s15.94,9.44,15.94,20.72v14.87h-24.33Zm16.28-6.88v-8.62c0-6.17-.89-12.9-7.97-12.9s-8.27,5.67-8.27,12.99v8.54h16.24Z"/>
    <path class="cls-3" d="m465.51,39.35c0-10.58.05-16.86-.13-22.51h7.92c.13,1.85.31,5.58.31,10.24,2.4-7.95,8.06-10.94,13.77-11.11v10.24c-8.32.08-13.58,5.46-13.58,17.02v39.69h-8.28v-43.56Z"/>
  </g>
  <path class="cls-1" d="m0,52.7c0,28.96,23.48,52.44,52.44,52.44v-52.44H0Z"/>
  <path class="cls-2" d="m0,52.7C0,23.74,23.48.26,52.44.26v52.44H0Z"/>
  <path class="cls-3" d="m24.39,71.16c-1.03.8-1.22,2.3-.42,3.33l.28.37c.8,1.03,2.3,1.22,3.33.42l3.12-2.42c-1.18-1.27-2.25-2.65-3.2-4.12l-3.12,2.42Z"/>
  <path class="cls-3" d="m24.39,34.25l3.12,2.42c.95-1.47,2.02-2.85,3.2-4.12l-3.12-2.42c-1.03-.8-2.53-.61-3.33.42l-.28.37c-.8,1.03-.61,2.53.42,3.33Z"/>
  <path class="cls-3" d="m21.35,51.15v3.1c0,.58.48,1.06,1.06,1.06h1.51c.42,4.69,1.98,9.05,4.39,12.81h0c.03.05.07.1.1.15.19.29.39.59.59.87.05.07.1.14.15.2.2.28.41.56.62.84.06.07.12.15.17.22.21.27.42.53.64.79.07.08.13.15.2.23.22.25.44.5.67.75.02.02.04.04.06.07h0c2.67,2.86,5.92,5.17,9.56,6.75.94-3.05,2.64-6.73,5.33-6.31,0,0,2.36.32,2.36,2.25-.25-.72-.84-1.31-1.63-1.52l-.45-.12c-1.26-.34-2.57.42-2.91,1.68l-2.52,9.37c-.34,1.26.42,2.57,1.68,2.91l.45.12c1.26.34,2.57-.42,2.91-1.68l1.28-4.78c1.59.27,3.21.43,4.88.43v-31.26h-30.04c-.58,0-1.06.48-1.06,1.06Z"/>
  <path class="cls-3" d="m47.57,24.48l-1.28-4.78c-.34-1.26-1.65-2.02-2.91-1.68l-.45.12c-1.26.34-2.02,1.65-1.68,2.91l2.52,9.37c.34,1.26,1.65,2.02,2.91,1.68l.45-.12c.79-.21,1.37-.8,1.63-1.52,0,1.93-2.36,2.25-2.36,2.25-2.68.42-4.38-3.25-5.32-6.3-3.64,1.58-6.89,3.89-9.56,6.75h0c-.13.13-.25.28-.37.41-.14.16-.28.31-.42.47-.15.17-.29.35-.44.53-.12.15-.25.3-.37.46-.14.18-.28.37-.42.56-.12.16-.23.31-.35.47-.14.2-.27.4-.41.6-.1.15-.21.31-.31.46-.03.05-.07.1-.1.15h0c-2.23,3.5-3.73,7.5-4.28,11.81h28.41v-25.04c-1.66,0-3.29.15-4.87.43Z"/>
  <path class="cls-1" d="m0,52.7c0,28.96,23.48,52.44,52.44,52.44v-52.44H0Z"/>
  <path class="cls-4" d="m24.39,71.16c-1.03.8-1.22,2.3-.42,3.33l.28.37c.8,1.03,2.3,1.22,3.33.42l3.12-2.42c-1.18-1.27-2.25-2.65-3.2-4.12l-3.12,2.42Zm-3.05-18.45v1.55c0,.58.48,1.06,1.06,1.06h1.51c.42,4.69,1.98,9.05,4.39,12.81h0c.03.05.07.1.1.15.19.29.39.59.59.87.05.07.1.14.15.2.2.28.41.56.62.84.06.07.12.15.17.22.21.27.42.53.64.79.07.08.13.15.2.23.22.25.44.5.67.75.02.02.04.04.06.07h0c2.67,2.86,5.92,5.17,9.56,6.75.94-3.05,2.64-6.73,5.33-6.31,0,0,2.36.32,2.36,2.25-.25-.72-.84-1.31-1.63-1.52l-.45-.12c-1.26-.34-2.57.42-2.91,1.68l-2.52,9.37c-.34,1.26.42,2.57,1.68,2.91l.45.12c1.26.34,2.57-.42,2.91-1.68l1.28-4.78c1.59.27,3.21.43,4.88.43v-28.65h-31.1Z"/>
</svg>