<svg preserveAspectRatio="xMidYMid meet" data-bbox="0 0 4069.169 979" xmlns="http://www.w3.org/2000/svg" width="3429" height="979" viewBox="0 0 3429 979" data-type="ugc" role="presentation" aria-hidden="true" aria-label="">
  <g>
    <defs>
      <clipPath id="953cadc7-80a4-4b47-9504-56de5d8db18b_comp-l5y2hdo5_r_comp-l4jtwdol">
        <path d="M3429 0v979H0V0h3429z"></path>
      </clipPath>
    </defs>
    <g clip-path="url(#953cadc7-80a4-4b47-9504-56de5d8db18b_comp-l5y2hdo5_r_comp-l4jtwdol)">
      <path d="M3429 0v979H0V0h3429z" fill="rgba(0,0,0,0)"></path>
      <g transform="translate(64.913 63.884)">
        <path d="M881.969 767.016s-76.84 12.621-141.535-1.855c-63.8-14.276-115.462-55.652-115.462-55.652s-87.913 63.539-176.918 63.072c-87.907-.465-176.919-64.929-176.919-64.929s-41.188 37.694-102.426 51.942c-66.14 15.389-152.708 7.42-152.708 7.42v77.913s83.521 12.22 154.57 0c56.763-9.763 104.289-44.522 104.289-44.522s68.9 50.51 176.918 50.087c95.062-.372 171.332-51.942 171.332-51.942s54.106 35.641 113.6 46.377c68.383 12.34 143.4 0 143.4 0Z" fill="#ff0b05"></path>
        <path d="M665.942 227.189s21.518 103.827 16.76 192.927c-4.549 85.193-37.246 157.681-37.246 157.681s76.431 26.129 121.05 61.219c43.834 34.471 57.731 76.058 57.731 76.058s-53.385 9.1-102.427-9.275c-51.955-19.463-98.7-55.652-98.7-55.652s-79.692 64.725-175.057 63.069c-100.735-1.746-167.607-63.071-167.607-63.071s-54.86 40.153-111.738 57.507c-45.1 13.761-93.115 7.42-93.115 7.42s38.01-96.083 169.469-133.565c64.982-18.528 154.034-27.082 225.338-25.971 66.292 1.033 117.325 11.13 117.325 11.13s44.715-82.589 57.731-176.232c12.091-86.981-14.9-181.8-14.9-181.8Z" fill="#8b1548"></path>
        <path d="M669.666 99.188s-28.435-37.192-67.042-59.362C562.129 16.573 513.234 12 513.234 12s43.638 22.244 67.043 44.522c17.685 16.834 14.9 31.536 14.9 31.536s-56.372-17.173-109.876 7.42c-103.573 47.607-119.189 118.725-119.189 118.725s48.89-43.93 85.666-61.217c45.218-21.256 76.354-14.841 76.354-14.841a9.365 9.365 0 0 1 9.311 3.71c5.734 7.85-1.862 16.7-1.862 16.7s-61.447 49.466-72.63 105.739c-16.1 81.044 26.072 170.667 26.072 170.667s-19.194-84.193 20.485-153.971c16.627-29.239 47.676-63.819 74.492-83.478 30.46-22.331 55.869-27.826 55.869-27.826s36.166 6.686 68.905 55.652c12.261 18.339 26.846 42.126 31.659 66.783 11.488 58.848 1.862 133.565 1.862 133.565s41.487-47.813 44.7-128c2.718-67.941-37.246-113.159-37.246-113.159s-10.414-12.34-9.581-17.736c1.012-6.55 13.305-6.38 13.305-6.38a226.339 226.339 0 0 1 59.593 25.971c37.294 23.409 76.354 59.362 76.354 59.362s-31.733-74.906-96.839-116.87c-38.15-24.592-122.915-29.686-122.915-29.686Z" fill="#ff2885"></path>
        <text transform="translate(996.499 427.981)" font-size="360" font-family="OpenSans-Bold, Open Sans" font-weight="700"><tspan x="0" y="0">open-appsec</tspan></text>
        <text transform="translate(1012.153 707.363)" font-size="170" font-family="OpenSans-Bold, Open Sans" font-weight="700"><tspan x="0" y="0">by CHECK POINT</tspan></text>
        <path d="M4004.256 463.116Z"></path>
      </g>
    </g>
  </g>
</svg>
