<svg width="1188" height="181" viewBox="0 0 1188 181" fill="none" xmlns="http://www.w3.org/2000/svg">
<path d="M329.31 148.55C326.201 151.031 322.613 152.842 318.77 153.87C314.505 155.075 310.092 155.675 305.66 155.65C294.1 155.65 285.17 152.627 278.87 146.58C272.57 140.533 269.417 131.733 269.41 120.18V25.79H294V49.79H322.18V69.5H294V119.55C294 124.67 295.28 128.577 297.84 131.27C300.4 133.963 303.98 135.297 308.58 135.27C314.1 135.27 318.697 133.827 322.37 130.94L329.31 148.55Z" fill="#344049"/>
<path d="M420.74 123.33L433.74 138.5C429.033 144.231 422.921 148.644 416 151.31C408.209 154.304 399.916 155.777 391.57 155.65C380.01 155.65 369.83 153.35 361.03 148.75C352.528 144.437 345.446 137.768 340.63 129.54C335.763 121.065 333.279 111.432 333.44 101.66C333.299 91.9752 335.713 82.4243 340.44 73.97C344.969 65.8986 351.655 59.247 359.75 54.76C368.29 50.0772 377.902 47.6992 387.64 47.86C396.995 47.743 406.234 49.9453 414.53 54.27C422.523 58.4561 429.18 64.804 433.74 72.59C438.473 80.5367 440.84 89.83 440.84 100.47L360.25 116.24C362.557 122.073 366.792 126.939 372.25 130.03C377.757 133.177 384.39 134.753 392.15 134.76C403.597 134.76 413.127 130.95 420.74 123.33ZM365.67 76.43C360.077 82.35 357.283 90.3 357.29 100.28V100.47L416.8 89.05C415.236 82.8275 411.582 77.3309 406.45 73.48C401.257 69.54 394.987 67.57 387.64 67.57C378.547 67.57 371.223 70.5233 365.67 76.43Z" fill="#344049"/>
<path d="M521.43 47.86V71.31C519.545 70.9406 517.631 70.7432 515.71 70.72C506.123 70.72 498.637 73.51 493.25 79.09C487.863 84.67 485.17 92.7166 485.17 103.23V154.23H460.54V49.05H484V64.41C491.087 53.3833 503.563 47.8667 521.43 47.86Z" fill="#344049"/>
<path d="M599.26 47.86V71.31C597.378 70.9407 595.467 70.7432 593.55 70.72C583.963 70.72 576.473 73.51 571.08 79.09C565.687 84.67 562.993 92.7166 563 103.23V154.23H538.37V49.05H561.82V64.41C568.92 53.3833 581.4 47.8667 599.26 47.86Z" fill="#344049"/>
<path d="M718.08 49.05V154.27H694.63V140.67C690.624 145.613 685.442 149.474 679.56 151.9C673.273 154.459 666.537 155.734 659.75 155.65C650.167 155.809 640.704 153.502 632.27 148.95C624.281 144.572 617.715 137.996 613.35 130C608.823 121.86 606.557 112.403 606.55 101.63C606.543 90.8567 608.81 81.43 613.35 73.35C617.744 65.409 624.306 58.8817 632.27 54.53C640.704 49.9782 650.167 47.6711 659.75 47.83C666.196 47.7594 672.593 48.9659 678.57 51.38C684.242 53.715 689.324 57.2809 693.45 61.82V49.02L718.08 49.05ZM685 125.5C690.913 119.46 693.867 111.513 693.86 101.66C693.853 91.8067 690.9 83.8566 685 77.81C679.08 71.77 671.59 68.75 662.53 68.75C653.47 68.75 646.017 71.77 640.17 77.81C634.323 83.8633 631.4 91.8133 631.4 101.66C631.4 111.507 634.323 119.453 640.17 125.5C646.01 131.54 653.463 134.56 662.53 134.56C671.597 134.56 679.087 131.54 685 125.5Z" fill="#344049"/>
<path d="M753.94 152.3C745.787 150.06 739.283 147.233 734.43 143.82L743.89 125.1C749.131 128.492 754.866 131.052 760.89 132.69C767.26 134.56 773.861 135.522 780.5 135.55C795.213 135.55 802.57 131.673 802.57 123.92C802.57 120.25 800.7 117.68 796.95 116.24C793.2 114.8 787.2 113.41 778.95 112.1C771.787 111.119 764.708 109.604 757.77 107.57C752.334 105.863 747.441 102.76 743.58 98.57C739.58 94.3033 737.58 88.36 737.58 80.74C737.58 70.74 741.753 62.76 750.1 56.8C758.447 50.84 769.71 47.84 783.89 47.8C791.186 47.8118 798.458 48.6403 805.57 50.27C811.789 51.5301 817.771 53.7571 823.3 56.87L813.84 75.59C804.693 70.2718 794.27 67.5443 783.69 67.7C776.47 67.7 770.987 68.7867 767.24 70.96C763.493 73.1333 761.62 75.99 761.62 79.53C761.62 83.47 763.62 86.26 767.62 87.9C771.62 89.54 777.827 91.0833 786.24 92.53C793.238 93.5349 800.153 95.0489 806.93 97.06C812.228 98.714 817.014 101.699 820.83 105.73C824.697 109.81 826.633 115.59 826.64 123.07C826.64 132.93 822.37 140.813 813.83 146.72C805.29 152.627 793.68 155.603 779 155.65C770.534 155.664 762.105 154.537 753.94 152.3Z" fill="#344049"/>
<path d="M862.9 148.75C854.469 144.377 847.438 137.72 842.61 129.54C837.831 121.041 835.321 111.455 835.321 101.705C835.321 91.9547 837.831 82.3687 842.61 73.87C847.443 65.7519 854.437 59.1359 862.81 54.76C871.41 50.16 881.227 47.86 892.26 47.86C902.64 47.86 911.737 49.9633 919.55 54.17C927.201 58.1941 933.377 64.5421 937.19 72.3L918.27 83.3C915.534 78.713 911.622 74.9398 906.94 72.37C902.366 69.9291 897.254 68.6742 892.07 68.72C882.87 68.72 875.25 71.72 869.21 77.72C863.17 83.72 860.15 91.7 860.15 101.66C860.15 111.66 863.15 119.64 869.15 125.6C875.15 131.56 882.817 134.56 892.15 134.6C897.333 134.649 902.446 133.397 907.02 130.96C911.677 128.371 915.56 124.588 918.27 120L937.19 131C933.246 138.751 927.024 145.109 919.36 149.22C911.54 153.487 902.507 155.623 892.26 155.63C882.055 155.802 871.967 153.438 862.9 148.75Z" fill="#344049"/>
<path d="M1055.81 49.05V154.27H1032.36V140.67C1028.35 145.613 1023.17 149.474 1017.29 151.9C1011.01 154.459 1004.27 155.734 997.49 155.65C987.908 155.825 978.442 153.536 970 149C962.004 144.609 955.437 138.014 951.08 130C946.547 121.86 944.28 112.403 944.28 101.63C944.28 90.8567 946.547 81.43 951.08 73.35C955.478 65.4201 962.04 58.9036 970 54.56C978.437 50.007 987.904 47.6998 997.49 47.86C1003.93 47.7905 1010.33 48.997 1016.3 51.41C1021.97 53.745 1027.05 57.3109 1031.18 61.85V49.05H1055.81ZM1022.71 125.5C1028.62 119.46 1031.57 111.513 1031.57 101.66C1031.57 91.8067 1028.62 83.8566 1022.71 77.81C1016.8 71.77 1009.31 68.75 1000.24 68.75C991.173 68.75 983.72 71.77 977.88 77.81C972.027 83.8633 969.103 91.8133 969.11 101.66C969.117 111.507 972.04 119.453 977.88 125.5C983.72 131.54 991.173 134.56 1000.24 134.56C1009.31 134.56 1016.8 131.54 1022.71 125.5Z" fill="#344049"/>
<path d="M1175.81 59.49C1183.81 67.2433 1187.81 78.7367 1187.81 93.97V154.27H1163.2V97.12C1163.2 87.9333 1161.03 81.0067 1156.69 76.34C1152.35 71.6733 1146.18 69.34 1138.17 69.34C1129.11 69.34 1121.95 72.0667 1116.69 77.52C1111.43 82.9733 1108.8 90.82 1108.81 101.06V154.27H1084.18V49.05H1107.63V62.64C1111.76 57.7497 1117.04 53.9685 1123 51.64C1129.66 49.0505 1136.75 47.777 1143.89 47.89C1157.15 47.87 1167.79 51.7367 1175.81 59.49Z" fill="#344049"/>
<path d="M159.77 180.72C158.221 180.721 156.705 180.28 155.399 179.448C154.092 178.617 153.051 177.429 152.396 176.026C151.742 174.623 151.502 173.061 151.704 171.526C151.907 169.991 152.544 168.546 153.54 167.36C168.935 148.852 176.418 125.023 174.368 101.037C172.319 77.0502 160.902 54.8367 142.59 39.2083C124.279 23.5799 100.548 15.7948 76.5369 17.5396C52.5262 19.2844 30.1697 30.4185 14.31 48.53C12.8964 50.1624 10.8922 51.1664 8.73837 51.3211C6.58451 51.4758 4.4574 50.7686 2.825 49.355C1.19259 47.9414 0.188599 45.9372 0.0338818 43.7833C-0.120836 41.6295 0.586396 39.5024 2 37.87C20.5652 16.1222 47.0092 2.6402 75.5147 0.389764C104.02 -1.86067 132.252 7.30484 154 25.87C175.748 44.4352 189.23 70.8792 191.48 99.3847C193.731 127.89 184.565 156.122 166 177.87C165.233 178.771 164.277 179.494 163.201 179.986C162.125 180.478 160.954 180.729 159.77 180.72Z" fill="#3BB34A"/>
<path d="M61.56 158.46C60.2498 158.46 58.9593 158.141 57.8 157.53C51.3144 154.139 45.566 149.494 40.8877 143.866C36.2095 138.238 32.6943 131.737 30.5459 124.741C28.3974 117.745 27.6583 110.392 28.3713 103.108C29.0844 95.8236 31.2355 88.7536 34.7 82.3067C38.1645 75.8599 42.8736 70.1645 48.5545 65.5502C54.2355 60.936 60.7754 57.4947 67.7956 55.4256C74.8158 53.3565 82.1767 52.7007 89.4521 53.4962C96.7275 54.2917 103.773 56.5227 110.18 60.06C112.008 61.1343 113.345 62.8796 113.906 64.9246C114.467 66.9695 114.208 69.1527 113.184 71.0095C112.16 72.8662 110.451 74.2501 108.422 74.8665C106.393 75.4829 104.204 75.2832 102.32 74.31C97.8019 71.8805 92.8495 70.3648 87.7456 69.8493C82.6416 69.3338 77.4862 69.8286 72.5735 71.3055C67.6608 72.7824 63.0871 75.2125 59.1136 78.457C55.14 81.7015 51.8445 85.6969 49.415 90.215C46.9856 94.7331 45.4698 99.6855 44.9543 104.789C44.4388 109.893 44.9336 115.049 46.4105 119.962C47.8875 124.874 50.3175 129.448 53.562 133.421C56.8065 137.395 60.8019 140.691 65.32 143.12C66.9357 143.962 68.2218 145.322 68.972 146.982C69.7223 148.642 69.8931 150.506 69.4572 152.275C69.0214 154.044 68.004 155.615 66.5683 156.737C65.1326 157.858 63.3618 158.465 61.54 158.46H61.56Z" fill="#3BB34A"/>
<path d="M10.58 130C8.67718 129.999 6.835 129.331 5.37352 128.112C3.91203 126.894 2.92362 125.202 2.57999 123.33C0.538981 112.67 0.629384 101.711 2.84598 91.0857C5.06258 80.4606 9.36148 70.3797 15.4946 61.4247C21.6277 52.4697 29.4736 44.818 38.5794 38.9112C47.6852 33.0044 57.8707 28.9595 68.548 27.0098C79.2254 25.0601 90.1831 25.2443 100.789 27.5518C111.395 29.8593 121.438 34.2443 130.341 40.4539C139.243 46.6634 146.827 54.5745 152.656 63.7306C158.484 72.8866 162.442 83.1064 164.3 93.8C164.687 95.9217 164.216 98.1104 162.989 99.8845C161.763 101.659 159.882 102.873 157.76 103.26C155.638 103.647 153.45 103.176 151.676 101.949C149.901 100.723 148.687 98.8417 148.3 96.72C146.744 88.2025 143.527 80.0747 138.83 72.8008C134.133 65.5269 128.05 59.2493 120.927 54.3264C113.805 49.4035 105.782 45.9317 97.3175 44.1093C88.853 42.2869 80.1125 42.1495 71.595 43.705C63.0774 45.2605 54.9497 48.4784 47.6758 53.1751C40.4019 57.8717 34.1243 63.955 29.2014 71.0777C24.2785 78.2004 20.8067 86.2231 18.9843 94.6875C17.1619 103.152 17.0245 111.892 18.58 120.41C18.7958 121.582 18.7508 122.788 18.4483 123.941C18.1457 125.094 17.593 126.166 16.8294 127.082C16.0658 127.997 15.1101 128.733 14.03 129.237C12.9499 129.742 11.772 130.002 10.58 130Z" fill="#344049"/>
<path d="M82.85 125.13C93.5146 125.13 102.16 116.485 102.16 105.82C102.16 95.1554 93.5146 86.51 82.85 86.51C72.1854 86.51 63.54 95.1554 63.54 105.82C63.54 116.485 72.1854 125.13 82.85 125.13Z" fill="#344049"/>
</svg>
